<svg width="182" height="182" viewBox="0 0 182 182" fill="none" xmlns="http://www.w3.org/2000/svg">
<path d="M179.844 170.037L126.841 9.63427C125.056 4.23292 119.202 0.00177734 113.513 0.00177734C113.433 0.00142187 68.4871 0 68.4871 0C62.7982 0 56.9439 4.2315 55.1591 9.63249L2.15555 170.037C1.16344 173.039 1.54805 176.081 3.21058 178.381C4.8724 180.681 7.63936 182 10.8016 182H45.3859C57.2489 182 67.7196 174.432 71.4403 163.168L90.9993 103.977L110.558 163.169C114.279 174.432 124.749 182 136.613 182H171.199C174.361 182 177.128 180.681 178.79 178.381C180.452 176.08 180.837 173.039 179.844 170.037ZM64.3875 160.838C61.6735 169.052 54.0376 174.571 45.3859 174.571H10.8016C10.0523 174.571 9.47963 174.374 9.2308 174.029C8.98197 173.684 8.97379 173.079 9.20876 172.367L62.2123 11.9633C62.9965 9.58984 65.9871 7.42859 68.4867 7.42859H112.758C113.508 7.42859 114.08 7.62623 114.329 7.97103C114.578 8.31584 114.586 8.92156 114.351 9.63285L64.3875 160.838ZM172.769 174.029C172.52 174.373 171.948 174.571 171.198 174.571H136.612C127.961 174.571 120.325 169.053 117.613 160.839L94.9116 92.1389L120.596 14.4107L172.792 172.368C173.026 173.079 173.018 173.685 172.769 174.029Z" fill="black"/>
<path d="M55.6564 70.145C53.7077 69.502 51.608 70.5588 50.9642 72.506L38.9913 108.737C38.3476 110.685 39.4051 112.786 41.3524 113.429C41.7395 113.557 42.1319 113.618 42.5183 113.618C44.0767 113.618 45.5288 112.629 46.0445 111.068L58.0171 74.8372C58.6615 72.8896 57.604 70.7887 55.6564 70.145Z" fill="black"/>
<path d="M60.1955 56.4072C58.2479 55.7638 56.147 56.821 55.5033 58.7682L54.9512 60.4386C54.3075 62.3862 55.365 64.487 57.3123 65.1308C57.6994 65.2584 58.0918 65.3195 58.4782 65.3195C60.0369 65.3195 61.4887 64.3302 62.0044 62.7697L62.5565 61.0994C63.201 59.1514 62.1434 57.051 60.1955 56.4072Z" fill="black"/>
</svg>
