<svg width="202" height="202" viewBox="0 0 202 202" fill="none" xmlns="http://www.w3.org/2000/svg">
<path d="M186.219 9.46875H15.7812C13.2709 9.47167 10.8642 10.4702 9.08906 12.2453C7.31396 14.0204 6.31542 16.4271 6.3125 18.9375V183.062C6.31542 185.573 7.31396 187.98 9.08906 189.755C10.8642 191.53 13.2709 192.528 15.7812 192.531H186.219C188.729 192.528 191.136 191.53 192.911 189.755C194.686 187.98 195.685 185.573 195.688 183.062V18.9375C195.685 16.4271 194.686 14.0204 192.911 12.2453C191.136 10.4702 188.729 9.47167 186.219 9.46875ZM15.7812 15.7812H186.219C187.056 15.7822 187.858 16.115 188.45 16.7067C189.041 17.2984 189.374 18.1007 189.375 18.9375V34.7188H12.625V18.9375C12.6259 18.1007 12.9588 17.2984 13.5505 16.7067C14.1422 16.115 14.9444 15.7822 15.7812 15.7812ZM186.219 186.219H15.7812C14.9444 186.218 14.1422 185.885 13.5505 185.293C12.9588 184.702 12.6259 183.899 12.625 183.062V41.0312H189.375V183.062C189.374 183.899 189.041 184.702 188.45 185.293C187.858 185.885 187.056 186.218 186.219 186.219Z" fill="black"/>
<path d="M47.3438 28.4062C49.0869 28.4062 50.5 26.9931 50.5 25.25C50.5 23.5069 49.0869 22.0938 47.3438 22.0938C45.6006 22.0938 44.1875 23.5069 44.1875 25.25C44.1875 26.9931 45.6006 28.4062 47.3438 28.4062Z" fill="black"/>
<path d="M34.7188 28.4062C36.4619 28.4062 37.875 26.9931 37.875 25.25C37.875 23.5069 36.4619 22.0938 34.7188 22.0938C32.9756 22.0938 31.5625 23.5069 31.5625 25.25C31.5625 26.9931 32.9756 28.4062 34.7188 28.4062Z" fill="black"/>
<path d="M22.0938 28.4062C23.8369 28.4062 25.25 26.9931 25.25 25.25C25.25 23.5069 23.8369 22.0938 22.0938 22.0938C20.3506 22.0938 18.9375 23.5069 18.9375 25.25C18.9375 26.9931 20.3506 28.4062 22.0938 28.4062Z" fill="black"/>
<path d="M37.875 148.344C35.4515 148.344 33.0792 149.042 31.0415 150.354C29.0037 151.666 27.3867 153.536 26.3835 155.743C25.3802 157.949 25.0332 160.397 25.3837 162.795C25.7343 165.193 26.7677 167.44 28.3605 169.266C28.4063 169.32 28.4533 169.373 28.5017 169.424C29.6852 170.736 31.131 171.786 32.7457 172.504C34.3603 173.222 36.1078 173.593 37.875 173.593C39.6422 173.593 41.3897 173.222 43.0043 172.504C44.619 171.786 46.0648 170.736 47.2483 169.424C47.2967 169.371 47.3438 169.319 47.3895 169.266C48.9823 167.44 50.0157 165.193 50.3663 162.795C50.7168 160.397 50.3698 157.949 49.3665 155.743C48.3633 153.536 46.7463 151.666 44.7085 150.354C42.6708 149.042 40.2985 148.344 37.875 148.344ZM42.6236 165.127C42.6208 165.13 42.6177 165.134 42.6133 165.139L42.5782 165.178C41.9864 165.84 41.2616 166.369 40.4511 166.732C39.6407 167.094 38.7628 167.282 37.875 167.282C36.9872 167.282 36.1093 167.094 35.2989 166.732C34.4884 166.369 33.7636 165.84 33.1718 165.178C33.1607 165.165 33.1489 165.153 33.1375 165.139L33.1264 165.126C32.3272 164.213 31.8078 163.09 31.6304 161.89C31.453 160.69 31.625 159.464 32.126 158.36C32.6269 157.255 33.4356 156.318 34.4551 155.661C35.4747 155.004 36.662 154.654 37.875 154.654C39.088 154.654 40.2753 155.004 41.2949 155.661C42.3144 156.318 43.1231 157.255 43.624 158.36C44.125 159.464 44.297 160.69 44.1196 161.89C43.9422 163.09 43.4228 164.213 42.6236 165.126V165.127Z" fill="black"/>
<path d="M101 148.344C98.5765 148.344 96.2042 149.042 94.1665 150.354C92.1288 151.666 90.5117 153.536 89.5085 155.743C88.5052 157.949 88.1582 160.397 88.5087 162.795C88.8593 165.193 89.8927 167.44 91.4855 169.266C91.5313 169.32 91.5783 169.373 91.6267 169.424C92.8102 170.736 94.256 171.786 95.8707 172.504C97.4854 173.222 99.2328 173.593 101 173.593C102.767 173.593 104.515 173.222 106.129 172.504C107.744 171.786 109.19 170.736 110.373 169.424C110.422 169.371 110.469 169.319 110.515 169.266C112.107 167.44 113.141 165.193 113.491 162.795C113.842 160.397 113.495 157.949 112.492 155.743C111.488 153.536 109.871 151.666 107.834 150.354C105.796 149.042 103.424 148.344 101 148.344ZM105.749 165.127C105.746 165.13 105.743 165.134 105.738 165.139L105.703 165.178C105.111 165.84 104.387 166.369 103.576 166.732C102.766 167.094 101.888 167.282 101 167.282C100.112 167.282 99.2343 167.094 98.4239 166.732C97.6134 166.369 96.8886 165.84 96.2968 165.178C96.2858 165.165 96.2739 165.153 96.2625 165.139L96.2514 165.126C95.4522 164.213 94.9328 163.09 94.7554 161.89C94.578 160.69 94.75 159.464 95.251 158.36C95.7519 157.255 96.5606 156.318 97.5801 155.661C98.5997 155.004 99.787 154.654 101 154.654C102.213 154.654 103.4 155.004 104.42 155.661C105.439 156.318 106.248 157.255 106.749 158.36C107.25 159.464 107.422 160.69 107.245 161.89C107.067 163.09 106.548 164.213 105.749 165.126V165.127Z" fill="black"/>
<path d="M69.4375 148.344C67.014 148.344 64.6417 149.042 62.604 150.354C60.5663 151.666 58.9492 153.536 57.946 155.743C56.9427 157.949 56.5957 160.397 56.9462 162.795C57.2968 165.193 58.3302 167.44 59.923 169.266C59.9688 169.32 60.0158 169.373 60.0642 169.424C61.2477 170.736 62.6935 171.786 64.3082 172.504C65.9229 173.222 67.6703 173.593 69.4375 173.593C71.2047 173.593 72.9522 173.222 74.5668 172.504C76.1815 171.786 77.6273 170.736 78.8108 169.424C78.8592 169.371 78.9063 169.319 78.952 169.266C80.5448 167.44 81.5782 165.193 81.9288 162.795C82.2793 160.397 81.9323 157.949 80.929 155.743C79.9258 153.536 78.3088 151.666 76.271 150.354C74.2333 149.042 71.8611 148.344 69.4375 148.344ZM74.1861 165.127C74.1833 165.13 74.1802 165.134 74.1758 165.139L74.1407 165.178C73.5489 165.84 72.8241 166.369 72.0136 166.732C71.2032 167.094 70.3253 167.282 69.4375 167.282C68.5497 167.282 67.6718 167.094 66.8614 166.732C66.0509 166.369 65.3261 165.84 64.7343 165.178C64.7233 165.165 64.7114 165.153 64.7 165.139L64.6889 165.126C63.8897 164.213 63.3703 163.09 63.1929 161.89C63.0155 160.69 63.1875 159.464 63.6885 158.36C64.1894 157.255 64.9981 156.318 66.0176 155.661C67.0372 155.004 68.2245 154.654 69.4375 154.654C70.6505 154.654 71.8378 155.004 72.8574 155.661C73.8769 156.318 74.6856 157.255 75.1865 158.36C75.6875 159.464 75.8595 160.69 75.6821 161.89C75.5047 163.09 74.9853 164.213 74.1861 165.126V165.127Z" fill="black"/>
<path d="M132.563 148.344C130.139 148.344 127.767 149.042 125.729 150.354C123.691 151.666 122.074 153.536 121.071 155.743C120.068 157.949 119.721 160.397 120.071 162.795C120.422 165.193 121.455 167.44 123.048 169.266C123.094 169.32 123.141 169.373 123.189 169.424C124.373 170.736 125.819 171.786 127.433 172.504C129.048 173.222 130.795 173.593 132.563 173.593C134.33 173.593 136.077 173.222 137.692 172.504C139.306 171.786 140.752 170.736 141.936 169.424C141.984 169.371 142.032 169.319 142.077 169.266C143.67 167.44 144.703 165.193 145.054 162.795C145.404 160.397 145.057 157.949 144.054 155.743C143.051 153.536 141.434 151.666 139.396 150.354C137.358 149.042 134.986 148.344 132.563 148.344ZM137.311 165.127C137.308 165.13 137.305 165.134 137.301 165.139L137.266 165.178C136.674 165.84 135.949 166.369 135.139 166.732C134.328 167.094 133.45 167.282 132.563 167.282C131.675 167.282 130.797 167.094 129.986 166.732C129.176 166.369 128.451 165.84 127.859 165.178C127.848 165.165 127.836 165.153 127.825 165.139L127.814 165.126C127.015 164.213 126.495 163.09 126.318 161.89C126.14 160.69 126.313 159.464 126.813 158.36C127.314 157.255 128.123 156.318 129.143 155.661C130.162 155.004 131.35 154.654 132.563 154.654C133.775 154.654 134.963 155.004 135.982 155.661C137.002 156.318 137.811 157.255 138.312 158.36C138.812 159.464 138.985 160.69 138.807 161.89C138.63 163.09 138.11 164.213 137.311 165.126V165.127Z" fill="black"/>
<path d="M164.125 148.344C161.701 148.344 159.329 149.042 157.291 150.354C155.254 151.666 153.637 153.536 152.633 155.743C151.63 157.949 151.283 160.397 151.634 162.795C151.984 165.193 153.018 167.44 154.61 169.266C154.656 169.32 154.703 169.373 154.752 169.424C155.935 170.736 157.381 171.786 158.996 172.504C160.61 173.222 162.358 173.593 164.125 173.593C165.892 173.593 167.64 173.222 169.254 172.504C170.869 171.786 172.315 170.736 173.498 169.424C173.547 169.371 173.594 169.319 173.64 169.266C175.232 167.44 176.266 165.193 176.616 162.795C176.967 160.397 176.62 157.949 175.617 155.743C174.613 153.536 172.996 151.666 170.959 150.354C168.921 149.042 166.549 148.344 164.125 148.344ZM168.874 165.127C168.871 165.13 168.868 165.134 168.863 165.139L168.828 165.178C168.236 165.84 167.512 166.369 166.701 166.732C165.891 167.094 165.013 167.282 164.125 167.282C163.237 167.282 162.359 167.094 161.549 166.732C160.738 166.369 160.014 165.84 159.422 165.178C159.411 165.165 159.399 165.153 159.387 165.139L159.376 165.126C158.577 164.213 158.058 163.09 157.88 161.89C157.703 160.69 157.875 159.464 158.376 158.36C158.877 157.255 159.686 156.318 160.705 155.661C161.725 155.004 162.912 154.654 164.125 154.654C165.338 154.654 166.525 155.004 167.545 155.661C168.564 156.318 169.373 157.255 169.874 158.36C170.375 159.464 170.547 160.69 170.37 161.89C170.192 163.09 169.673 164.213 168.874 165.126V165.127Z" fill="black"/>
<path d="M173.594 53.6562H28.4062C27.5692 53.6562 26.7664 53.9888 26.1744 54.5807C25.5825 55.1726 25.25 55.9754 25.25 56.8125V132.562C25.25 133.4 25.5825 134.202 26.1744 134.794C26.7664 135.386 27.5692 135.719 28.4062 135.719H173.594C174.431 135.719 175.234 135.386 175.826 134.794C176.417 134.202 176.75 133.4 176.75 132.562V56.8125C176.75 55.9754 176.417 55.1726 175.826 54.5807C175.234 53.9888 174.431 53.6562 173.594 53.6562ZM170.438 129.406H31.5625V59.9688H170.438V129.406Z" fill="black"/>
<path d="M41.0312 91.5312H47.3438C48.1808 91.5312 48.9836 91.1987 49.5756 90.6068C50.1675 90.0149 50.5 89.2121 50.5 88.375C50.5 87.5379 50.1675 86.7351 49.5756 86.1432C48.9836 85.5513 48.1808 85.2188 47.3438 85.2188H41.0312C40.1942 85.2188 39.3914 85.5513 38.7994 86.1432C38.2075 86.7351 37.875 87.5379 37.875 88.375C37.875 89.2121 38.2075 90.0149 38.7994 90.6068C39.3914 91.1987 40.1942 91.5312 41.0312 91.5312Z" fill="black"/>
<path d="M104.156 116.781H160.969C161.555 116.781 162.129 116.618 162.628 116.31C163.127 116.002 163.53 115.561 163.792 115.036C164.054 114.512 164.165 113.925 164.112 113.342C164.06 112.758 163.845 112.2 163.494 111.731L144.556 86.4812C144.262 86.0892 143.881 85.7711 143.443 85.552C143.005 85.3328 142.521 85.2187 142.031 85.2187C141.541 85.2187 141.058 85.3328 140.62 85.552C140.181 85.7711 139.8 86.0892 139.506 86.4812L133.906 93.9481L125.8 80.4386C125.52 79.9712 125.123 79.5844 124.649 79.3159C124.175 79.0473 123.639 78.9062 123.094 78.9062C122.549 78.9062 122.013 79.0473 121.539 79.3159C121.064 79.5844 120.668 79.9712 120.387 80.4386L101.45 112.001C101.162 112.48 101.007 113.027 101 113.585C100.993 114.144 101.134 114.694 101.41 115.18C101.685 115.666 102.084 116.07 102.567 116.352C103.049 116.633 103.598 116.781 104.156 116.781ZM142.031 93.6353L154.656 110.469H143.818L137.415 99.7931L142.031 93.6353ZM123.094 88.1971L136.457 110.469H109.731L123.094 88.1971Z" fill="black"/>
<path d="M138.875 78.9062C140.618 78.9062 142.031 77.4931 142.031 75.75C142.031 74.0069 140.618 72.5938 138.875 72.5938C137.132 72.5938 135.719 74.0069 135.719 75.75C135.719 77.4931 137.132 78.9062 138.875 78.9062Z" fill="black"/>
<path d="M72.5938 110.469H59.9688C59.1317 110.469 58.3289 110.801 57.7369 111.393C57.145 111.985 56.8125 112.788 56.8125 113.625C56.8125 114.462 57.145 115.265 57.7369 115.857C58.3289 116.449 59.1317 116.781 59.9688 116.781H72.5938C73.4308 116.781 74.2336 116.449 74.8256 115.857C75.4175 115.265 75.75 114.462 75.75 113.625C75.75 112.788 75.4175 111.985 74.8256 111.393C74.2336 110.801 73.4308 110.469 72.5938 110.469Z" fill="black"/>
<path d="M56.8125 88.375C56.8125 89.2121 57.145 90.0149 57.7369 90.6068C58.3289 91.1987 59.1317 91.5312 59.9688 91.5312H91.5312C92.3683 91.5312 93.1711 91.1987 93.7631 90.6068C94.355 90.0149 94.6875 89.2121 94.6875 88.375C94.6875 87.5379 94.355 86.7351 93.7631 86.1432C93.1711 85.5513 92.3683 85.2188 91.5312 85.2188H59.9688C59.1317 85.2188 58.3289 85.5513 57.7369 86.1432C57.145 86.7351 56.8125 87.5379 56.8125 88.375Z" fill="black"/>
<path d="M41.0312 104.156H72.5938C73.4308 104.156 74.2336 103.824 74.8256 103.232C75.4175 102.64 75.75 101.837 75.75 101C75.75 100.163 75.4175 99.3601 74.8256 98.7682C74.2336 98.1763 73.4308 97.8438 72.5938 97.8438H41.0312C40.1942 97.8438 39.3914 98.1763 38.7994 98.7682C38.2075 99.3601 37.875 100.163 37.875 101C37.875 101.837 38.2075 102.64 38.7994 103.232C39.3914 103.824 40.1942 104.156 41.0312 104.156Z" fill="black"/>
<path d="M91.5312 97.8438H85.2188C84.3817 97.8438 83.5789 98.1763 82.9869 98.7682C82.395 99.3601 82.0625 100.163 82.0625 101C82.0625 101.837 82.395 102.64 82.9869 103.232C83.5789 103.824 84.3817 104.156 85.2188 104.156H91.5312C92.3683 104.156 93.1711 103.824 93.7631 103.232C94.355 102.64 94.6875 101.837 94.6875 101C94.6875 100.163 94.355 99.3601 93.7631 98.7682C93.1711 98.1763 92.3683 97.8438 91.5312 97.8438Z" fill="black"/>
<path d="M41.0312 78.9062H59.9688C60.8058 78.9062 61.6086 78.5737 62.2006 77.9818C62.7925 77.3899 63.125 76.5871 63.125 75.75C63.125 74.9129 62.7925 74.1101 62.2006 73.5182C61.6086 72.9263 60.8058 72.5938 59.9688 72.5938H41.0312C40.1942 72.5938 39.3914 72.9263 38.7994 73.5182C38.2075 74.1101 37.875 74.9129 37.875 75.75C37.875 76.5871 38.2075 77.3899 38.7994 77.9818C39.3914 78.5737 40.1942 78.9062 41.0312 78.9062Z" fill="black"/>
</svg>
