<svg width="182" height="182" viewBox="0 0 182 182" fill="none" xmlns="http://www.w3.org/2000/svg">
<path d="M172.9 54.6C177.926 54.6 182 50.5259 182 45.5V9.1C182 4.07415 177.926 0 172.9 0H9.1C4.07415 0 0 4.07415 0 9.1V45.5C0 50.5259 4.07415 54.6 9.1 54.6H18.2V63.7H9.1C4.07415 63.7 0 67.7741 0 72.8V109.2C0 114.226 4.07415 118.3 9.1 118.3H18.2V127.4H9.1C4.07415 127.4 0 131.474 0 136.5V172.9C0 177.926 4.07415 182 9.1 182H172.9C177.926 182 182 177.926 182 172.9V136.5C182 131.474 177.926 127.4 172.9 127.4H163.8V118.3H172.9C177.926 118.3 182 114.226 182 109.2V72.8C182 67.7741 177.926 63.7 172.9 63.7H163.8V54.6H172.9ZM172.9 133.467C174.575 133.467 175.933 134.825 175.933 136.5V172.9C175.933 174.575 174.575 175.933 172.9 175.933H9.1C7.42484 175.933 6.06667 174.575 6.06667 172.9V136.5C6.06667 134.825 7.42484 133.467 9.1 133.467H172.9ZM24.2667 127.4V118.3H30.3333V127.4H24.2667ZM36.4 127.4V118.3H145.6V127.4H36.4ZM151.667 127.4V118.3H157.733V127.4H151.667ZM172.9 69.7667C174.575 69.7667 175.933 71.1248 175.933 72.8V109.2C175.933 110.875 174.575 112.233 172.9 112.233H9.1C7.42484 112.233 6.06667 110.875 6.06667 109.2V72.8C6.06667 71.1248 7.42484 69.7667 9.1 69.7667H172.9ZM24.2667 63.7V54.6H30.3333V63.7H24.2667ZM36.4 63.7V54.6H145.6V63.7H36.4ZM151.667 63.7V54.6H157.733V63.7H151.667ZM9.1 48.5333C7.42484 48.5333 6.06667 47.1752 6.06667 45.5V9.1C6.06667 7.42484 7.42484 6.06667 9.1 6.06667H172.9C174.575 6.06667 175.933 7.42484 175.933 9.1V45.5C175.933 47.1752 174.575 48.5333 172.9 48.5333H9.1Z" fill="black"/>
<path d="M97.0667 24.2666H35.8419C34.1667 19.5282 28.9672 17.045 24.2291 18.7206C19.4911 20.3961 17.0075 25.5949 18.6827 30.3333C20.3578 35.0717 25.5573 37.5549 30.2954 35.8794C32.887 34.9633 34.9258 32.9249 35.8419 30.3333H97.0667C98.7418 30.3333 100.1 28.9751 100.1 27.3C100.1 25.6248 98.7418 24.2666 97.0667 24.2666ZM27.3 30.3333C25.6248 30.3333 24.2667 28.9751 24.2667 27.3C24.2667 25.6248 25.6248 24.2666 27.3 24.2666C28.9752 24.2666 30.3333 25.6248 30.3333 27.3C30.3333 28.9751 28.9752 30.3333 27.3 30.3333Z" fill="black"/>
<path d="M139.533 12.1333H133.467V18.2H139.533V12.1333Z" fill="black"/>
<path d="M151.667 12.1333H145.6V18.2H151.667V12.1333Z" fill="black"/>
<path d="M163.8 12.1333H157.733V18.2H163.8V12.1333Z" fill="black"/>
<path d="M127.4 12.1333H121.333V18.2H127.4V12.1333Z" fill="black"/>
<path d="M115.267 12.1333H109.2V18.2H115.267V12.1333Z" fill="black"/>
<path d="M139.533 24.2667H133.467V30.3334H139.533V24.2667Z" fill="black"/>
<path d="M151.667 24.2667H145.6V30.3334H151.667V24.2667Z" fill="black"/>
<path d="M163.8 24.2667H157.733V30.3334H163.8V24.2667Z" fill="black"/>
<path d="M127.4 24.2667H121.333V30.3334H127.4V24.2667Z" fill="black"/>
<path d="M115.267 24.2667H109.2V30.3334H115.267V24.2667Z" fill="black"/>
<path d="M139.533 36.4H133.467V42.4667H139.533V36.4Z" fill="black"/>
<path d="M151.667 36.4H145.6V42.4667H151.667V36.4Z" fill="black"/>
<path d="M163.8 36.4H157.733V42.4667H163.8V36.4Z" fill="black"/>
<path d="M127.4 36.4H121.333V42.4667H127.4V36.4Z" fill="black"/>
<path d="M115.267 36.4H109.2V42.4667H115.267V36.4Z" fill="black"/>
<path d="M97.0667 87.9667H35.8419C34.1667 83.2283 28.9672 80.7451 24.2291 82.4206C19.4911 84.0962 17.0075 89.2949 18.6827 94.0334C20.3578 98.7718 25.5573 101.255 30.2954 99.5794C32.887 98.6634 34.9254 96.6246 35.8415 94.0334H97.0667C98.7418 94.0334 100.1 92.6752 100.1 91C100.1 89.3249 98.7418 87.9667 97.0667 87.9667ZM27.3 94.0334C25.6248 94.0334 24.2667 92.6752 24.2667 91C24.2667 89.3249 25.6248 87.9667 27.3 87.9667C28.9752 87.9667 30.3333 89.3249 30.3333 91C30.3333 92.6752 28.9752 94.0334 27.3 94.0334Z" fill="black"/>
<path d="M139.533 75.8334H133.467V81.9H139.533V75.8334Z" fill="black"/>
<path d="M151.667 75.8334H145.6V81.9H151.667V75.8334Z" fill="black"/>
<path d="M163.8 75.8334H157.733V81.9H163.8V75.8334Z" fill="black"/>
<path d="M127.4 75.8334H121.333V81.9H127.4V75.8334Z" fill="black"/>
<path d="M115.267 75.8334H109.2V81.9H115.267V75.8334Z" fill="black"/>
<path d="M139.533 87.9667H133.467V94.0333H139.533V87.9667Z" fill="black"/>
<path d="M151.667 87.9667H145.6V94.0333H151.667V87.9667Z" fill="black"/>
<path d="M163.8 87.9667H157.733V94.0333H163.8V87.9667Z" fill="black"/>
<path d="M127.4 87.9667H121.333V94.0333H127.4V87.9667Z" fill="black"/>
<path d="M115.267 87.9667H109.2V94.0333H115.267V87.9667Z" fill="black"/>
<path d="M139.533 100.1H133.467V106.167H139.533V100.1Z" fill="black"/>
<path d="M151.667 100.1H145.6V106.167H151.667V100.1Z" fill="black"/>
<path d="M163.8 100.1H157.733V106.167H163.8V100.1Z" fill="black"/>
<path d="M127.4 100.1H121.333V106.167H127.4V100.1Z" fill="black"/>
<path d="M115.267 100.1H109.2V106.167H115.267V100.1Z" fill="black"/>
<path d="M97.0667 151.667H35.8419C34.1667 146.928 28.9672 144.445 24.2291 146.121C19.4911 147.796 17.0075 152.995 18.6827 157.733C20.3578 162.472 25.5573 164.955 30.2954 163.279C32.887 162.363 34.9254 160.325 35.8415 157.733H97.0667C98.7418 157.733 100.1 156.375 100.1 154.7C100.1 153.025 98.7418 151.667 97.0667 151.667ZM27.3 157.733C25.6248 157.733 24.2667 156.375 24.2667 154.7C24.2667 153.025 25.6248 151.667 27.3 151.667C28.9752 151.667 30.3333 153.025 30.3333 154.7C30.3333 156.375 28.9752 157.733 27.3 157.733Z" fill="black"/>
<path d="M139.533 139.533H133.467V145.6H139.533V139.533Z" fill="black"/>
<path d="M151.667 139.533H145.6V145.6H151.667V139.533Z" fill="black"/>
<path d="M163.8 139.533H157.733V145.6H163.8V139.533Z" fill="black"/>
<path d="M127.4 139.533H121.333V145.6H127.4V139.533Z" fill="black"/>
<path d="M115.267 139.533H109.2V145.6H115.267V139.533Z" fill="black"/>
<path d="M139.533 151.667H133.467V157.733H139.533V151.667Z" fill="black"/>
<path d="M151.667 151.667H145.6V157.733H151.667V151.667Z" fill="black"/>
<path d="M163.8 151.667H157.733V157.733H163.8V151.667Z" fill="black"/>
<path d="M127.4 151.667H121.333V157.733H127.4V151.667Z" fill="black"/>
<path d="M115.267 151.667H109.2V157.733H115.267V151.667Z" fill="black"/>
<path d="M139.533 163.8H133.467V169.867H139.533V163.8Z" fill="black"/>
<path d="M151.667 163.8H145.6V169.867H151.667V163.8Z" fill="black"/>
<path d="M163.8 163.8H157.733V169.867H163.8V163.8Z" fill="black"/>
<path d="M127.4 163.8H121.333V169.867H127.4V163.8Z" fill="black"/>
<path d="M115.267 163.8H109.2V169.867H115.267V163.8Z" fill="black"/>
</svg>
