<svg width="202" height="202" viewBox="0 0 202 202" fill="none" xmlns="http://www.w3.org/2000/svg">
<g clip-path="url(#clip0)">
<path d="M197.42 37.2423H117.15C115.222 28.3234 107.026 21.3329 97.6253 21.3329C87.9833 21.3329 80.0286 28.0823 78.1002 37.2423H4.3389C1.9284 37.2423 0 39.1707 0 41.5812C0 43.9917 1.9284 45.9201 4.3389 45.9201H77.8592C79.7876 54.8389 87.9833 61.8294 97.3842 61.8294C107.026 61.8294 114.981 55.08 116.909 45.9201H197.42C199.831 45.9201 201.759 43.9917 201.759 41.5812C201.759 39.1707 199.831 37.2423 197.42 37.2423ZM97.6253 53.3926C91.358 53.3926 86.0549 48.3306 86.0549 41.8222C86.0549 35.3139 91.1169 30.2518 97.6253 30.2518C103.893 30.2518 109.196 35.3139 109.196 41.8222C109.196 48.0895 104.134 53.3926 97.6253 53.3926Z" fill="white"/>
<path d="M197.661 96.7816H75.9308C74.0024 87.8628 65.8067 80.8723 56.4057 80.8723C46.7637 80.8723 38.8091 87.6217 36.8807 96.7816H4.3389C1.9284 96.7816 0 98.71 0 101.121C0 103.531 1.9284 105.459 4.3389 105.459H36.8807C38.8091 114.378 47.0048 121.369 56.4057 121.369C66.0477 121.369 74.0024 114.619 75.9308 105.459H197.661C200.072 105.459 202 103.531 202 101.121C202 98.71 200.072 96.7816 197.661 96.7816ZM56.4057 112.691C50.1384 112.691 44.8353 107.629 44.8353 101.121C44.8353 94.8532 50.1384 89.5501 56.4057 89.5501C62.673 89.5501 67.9761 94.6122 67.9761 101.121C67.9761 107.388 62.9141 112.691 56.4057 112.691Z" fill="white"/>
<path d="M197.42 156.08H159.575C157.647 147.161 149.451 140.171 140.05 140.171C130.408 140.171 122.453 146.92 120.525 156.08H4.3389C1.9284 156.08 0 158.008 0 160.419C0 162.829 1.9284 164.758 4.3389 164.758H120.284C122.212 173.677 130.408 180.667 139.809 180.667C149.451 180.667 157.406 173.918 159.334 164.758H197.42C199.831 164.758 201.759 162.829 201.759 160.419C201.759 158.008 199.831 156.08 197.42 156.08ZM139.809 172.23C133.542 172.23 128.239 167.168 128.239 160.66C128.239 154.152 133.542 149.089 139.809 149.089C146.076 149.089 151.379 154.152 151.379 160.66C151.379 167.168 146.317 172.23 139.809 172.23Z" fill="white"/>
</g>
<defs>
<clipPath id="clip0">
<rect width="202" height="202" fill="white"/>
</clipPath>
</defs>
</svg>
