<svg width="202" height="202" viewBox="0 0 202 202" fill="none" xmlns="http://www.w3.org/2000/svg">
<path d="M31.2358 31.2342H0V0H31.2358V31.2342ZM5.93646 25.2978H25.2993V5.93646H5.93646V25.2978Z" fill="black"/>
<path d="M202 31.2342H170.766V0H202V31.2342ZM176.702 25.2978H196.064V5.93646H176.702V25.2978Z" fill="black"/>
<path d="M31.2358 202H0V170.766H31.2358V202ZM5.93646 196.064H25.2993V176.702H5.93646V196.064Z" fill="black"/>
<path d="M202 202H170.766V170.766H202V202ZM176.702 196.064H196.064V176.702H176.702V196.064Z" fill="black"/>
<path d="M40.9156 12.6497H47.2405V18.5861H40.9156V12.6497Z" fill="black"/>
<path d="M53.5653 12.6497H59.8901V18.5861H53.5653V12.6497Z" fill="black"/>
<path d="M66.215 12.6497H72.5383V18.5861H66.215V12.6497Z" fill="black"/>
<path d="M78.8631 12.6497H85.1879V18.5861H78.8631V12.6497Z" fill="black"/>
<path d="M91.5128 12.6497H97.8376V18.5861H91.5128V12.6497Z" fill="black"/>
<path d="M104.162 12.6497H110.487V18.5861H104.162V12.6497Z" fill="black"/>
<path d="M116.812 12.6497H123.135V18.5861H116.812V12.6497Z" fill="black"/>
<path d="M129.46 12.6497H135.785V18.5861H129.46V12.6497Z" fill="black"/>
<path d="M142.11 12.6497H148.435V18.5861H142.11V12.6497Z" fill="black"/>
<path d="M154.76 12.6497H161.084V18.5861H154.76V12.6497Z" fill="black"/>
<path d="M40.9156 186.576H47.2405V192.513H40.9156V186.576Z" fill="black"/>
<path d="M53.5653 186.576H59.8901V192.513H53.5653V186.576Z" fill="black"/>
<path d="M66.215 186.576H72.5383V192.513H66.215V186.576Z" fill="black"/>
<path d="M78.8631 186.576H85.1879V192.513H78.8631V186.576Z" fill="black"/>
<path d="M91.5128 186.576H97.8376V192.513H91.5128V186.576Z" fill="black"/>
<path d="M104.162 186.576H110.487V192.513H104.162V186.576Z" fill="black"/>
<path d="M116.812 186.576H123.135V192.513H116.812V186.576Z" fill="black"/>
<path d="M129.46 186.576H135.785V192.513H129.46V186.576Z" fill="black"/>
<path d="M142.11 186.576H148.435V192.513H142.11V186.576Z" fill="black"/>
<path d="M154.76 186.576H161.084V192.513H154.76V186.576Z" fill="black"/>
<path d="M12.6497 40.9156H18.5861V161.084H12.6497V40.9156Z" fill="black"/>
<path d="M183.414 40.9156H189.35V161.084H183.414V40.9156Z" fill="black"/>
<path d="M12.4554 12.6497H18.7803V18.5861H12.4554V12.6497Z" fill="black"/>
<path d="M183.22 12.6497H189.545V18.5861H183.22V12.6497Z" fill="black"/>
<path d="M183.22 183.414H189.545V189.35H183.22V183.414Z" fill="black"/>
<path d="M12.4554 183.414H18.7803V189.35H12.4554V183.414Z" fill="black"/>
<path d="M170.377 88.1562H31.6226V44.2723H101V50.2087H37.5591V82.2197H164.441V50.2087H110.487V44.2723H170.377V88.1562Z" fill="black"/>
<path d="M107.131 160.89H31.6226V126.298H37.5591V154.954H101.194V103.968H37.5591V116.811H31.6226V98.0317H107.131V160.89Z" fill="black"/>
<path d="M170.377 122.943H145.272V117.006H164.441V103.968H119.78V117.006H135.785V122.943H113.844V98.0317H170.377V122.943Z" fill="black"/>
<path d="M170.377 160.89H113.844V129.656H170.377V138.947H164.441V135.591H119.78V154.954H164.441V148.435H170.377V160.89Z" fill="black"/>
<path d="M66.4092 119.974H72.3456V138.947H66.4092V119.974Z" fill="black"/>
<path d="M59.8901 126.494H78.8631V132.428H59.8901V126.494Z" fill="black"/>
<path d="M50.2087 69.3774H44.2723V56.9219H56.7278V62.8584H50.2087V69.3774Z" fill="black"/>
<path d="M151.597 69.5716H157.922V75.5065H151.597V69.5716Z" fill="black"/>
<path d="M138.947 69.5716H145.272V75.5065H138.947V69.5716Z" fill="black"/>
</svg>
