<svg width="38" height="40" viewBox="0 0 38 40" fill="none" xmlns="http://www.w3.org/2000/svg">
<path d="M37.306 14.5679C36.6533 13.9188 35.5981 13.9217 34.9489 14.5742L14.9134 34.7181C12.3141 37.3174 8.09234 37.3174 5.48813 34.7146C2.88589 32.111 2.88589 27.8892 5.48845 25.2867L26.117 4.54979C27.7398 2.92702 30.3782 2.92702 32.0058 4.55331C33.6329 6.18038 33.6329 8.81849 32.0054 10.446L14.9166 27.5347C14.9155 27.5358 14.9145 27.5371 14.9134 27.5381C14.2624 28.1856 13.2103 28.1847 12.5606 27.535C11.9098 26.8842 11.9098 25.8294 12.5606 25.1786L20.8092 16.9283C21.46 16.2773 21.4599 15.222 20.809 14.5712C20.158 13.9204 19.1027 13.9205 18.4519 14.5714L10.2033 22.8216C8.25086 24.7741 8.25086 27.9395 10.2035 29.892C12.156 31.8446 15.3214 31.8446 17.274 29.892C17.2763 29.8898 17.2781 29.8873 17.2803 29.8851L34.3624 12.803C37.2917 9.87367 37.2917 5.12496 34.3624 2.19568C31.4327 -0.731892 26.6843 -0.731892 23.7568 2.19568L3.12824 22.9327C-0.77295 26.8339 -0.77295 33.1657 3.13105 37.0716C7.03762 40.9762 13.3695 40.9762 17.2737 37.072L37.3124 16.925C37.9615 16.2723 37.9586 15.2171 37.306 14.5679Z" fill="black"/>
</svg>
