<svg xmlns="http://www.w3.org/2000/svg" viewBox="0 0 197.64 71.07"><title>logo-best-site</title><path d="M134,1.52V68h-5.9V1.52Z" transform="translate(0)"/><path d="M134,71.07H1.82V69.32H134Z" transform="translate(0)"/><path d="M107.89,5.77H69.29V4h38.59Z" transform="translate(0)"/><path d="M77.16,20.78c.08,4.76,3.12,6.72,6.64,6.72a12.73,12.73,0,0,0,5.36-1l.6,2.52a15.69,15.69,0,0,1-6.44,1.2c-6,0-9.53-3.92-9.53-9.77S77.24,10,82.88,10c6.32,0,8,5.56,8,9.12a13.45,13.45,0,0,1-.12,1.64Zm10.33-2.52c0-2.24-.92-5.72-4.88-5.72-3.56,0-5.12,3.28-5.4,5.72Z" transform="translate(0)"/><path d="M94.78,26.23a9.23,9.23,0,0,0,4.64,1.4c2.56,0,3.76-1.28,3.76-2.88s-1-2.6-3.6-3.56C96.1,19.94,94.46,18,94.46,15.7c0-3.12,2.52-5.68,6.68-5.68a9.67,9.67,0,0,1,4.76,1.2L105,13.78a7.54,7.54,0,0,0-4-1.12c-2.08,0-3.24,1.2-3.24,2.64,0,1.6,1.16,2.32,3.68,3.28,3.36,1.28,5.08,3,5.08,5.84,0,3.4-2.64,5.8-7.24,5.8a11.05,11.05,0,0,1-5.44-1.32Z" transform="translate(0)"/><path d="M115.36,4.89v5.56h5v2.68h-5V23.58c0,2.4.68,3.76,2.64,3.76a7.88,7.88,0,0,0,2-.24l.16,2.64a8.62,8.62,0,0,1-3.12.48,4.89,4.89,0,0,1-3.8-1.48c-1-1-1.36-2.76-1.36-5V13.14h-3V10.46h3V5.81Z" transform="translate(0)"/><path d="M85.34,42.77a2.18,2.18,0,0,1-4.36,0,2.15,2.15,0,0,1,2.2-2.2A2.09,2.09,0,0,1,85.34,42.77ZM81.42,67.58V48.21h3.52V67.58Z" transform="translate(0)"/><path d="M95,42.65v5.56h5v2.68H95V61.34c0,2.4.68,3.76,2.64,3.76a7.9,7.9,0,0,0,2-.24l.16,2.64a8.62,8.62,0,0,1-3.12.48A4.89,4.89,0,0,1,93,66.5c-1-1-1.36-2.76-1.36-5V50.89h-3V48.21h3V43.57Z" transform="translate(0)"/><path d="M105.77,58.54c.08,4.76,3.12,6.72,6.64,6.72a12.73,12.73,0,0,0,5.36-1l.6,2.52a15.69,15.69,0,0,1-6.44,1.2c-6,0-9.53-3.92-9.53-9.77s3.44-10.44,9.09-10.44c6.32,0,8,5.56,8,9.12a13.45,13.45,0,0,1-.12,1.64ZM116.09,56c0-2.24-.92-5.72-4.88-5.72-3.56,0-5.12,3.28-5.4,5.72Z" transform="translate(0)"/><path d="M157.8,39.2V62.62c0,1.72,0,3.68.16,5h-3.16l-.16-3.36h-.08a7.17,7.17,0,0,1-6.6,3.8c-4.68,0-8.29-4-8.29-9.85,0-6.44,4-10.41,8.68-10.41a6.48,6.48,0,0,1,5.84,3h.08V39.2Zm-3.52,16.93a6.19,6.19,0,0,0-.16-1.48A5.18,5.18,0,0,0,149,50.57c-3.64,0-5.8,3.2-5.8,7.49,0,3.92,1.92,7.16,5.72,7.16a5.29,5.29,0,0,0,5.16-4.2,6.09,6.09,0,0,0,.16-1.52Z" transform="translate(0)"/><path d="M165.61,58.57c.08,4.76,3.12,6.72,6.64,6.72a12.73,12.73,0,0,0,5.36-1l.6,2.52a15.69,15.69,0,0,1-6.44,1.2c-6,0-9.53-3.92-9.53-9.77s3.44-10.44,9.09-10.44c6.32,0,8,5.56,8,9.12a13.45,13.45,0,0,1-.12,1.64Zm10.33-2.52c0-2.24-.92-5.72-4.88-5.72-3.56,0-5.12,3.28-5.4,5.72Z" transform="translate(0)"/><path d="M194.44,67.62l-.28-2.44H194a7.21,7.21,0,0,1-5.92,2.88,5.52,5.52,0,0,1-5.92-5.56c0-4.68,4.16-7.24,11.65-7.2v-.4c0-1.6-.44-4.48-4.4-4.48a9.65,9.65,0,0,0-5,1.44l-.8-2.32A12,12,0,0,1,190,47.81c5.92,0,7.36,4,7.36,7.92V63a27.17,27.17,0,0,0,.32,4.64Zm-.52-9.89c-3.84-.08-8.2.6-8.2,4.36A3.12,3.12,0,0,0,189,65.46a4.82,4.82,0,0,0,4.68-3.24,3.71,3.71,0,0,0,.2-1.12Z" transform="translate(0)"/><path d="M73.42,43.79a18.23,18.23,0,0,0-1.47-6.14,16.22,16.22,0,0,0-3.77-5.3A17,17,0,0,0,62.71,29a32.54,32.54,0,0,0-5.54-1.51c-1.79-.35-3.49-.61-5.11-.89a36.22,36.22,0,0,1-4.55-1L47,25.36l-.26-.09-.19-.08L46.14,25l-.38-.2a7.47,7.47,0,0,1-1.44-1,9,9,0,0,1-3-6.63,10.37,10.37,0,0,1,3.13-7.09,11.79,11.79,0,0,1,1.58-1.33c.28-.21.58-.38.87-.56s.59-.33.93-.48a20,20,0,0,1,4.32-1.36c3-.56,6.06-.4,8.3,1.23A7.28,7.28,0,0,1,62,9.07a6.86,6.86,0,0,1,1.05,1.83,6,6,0,0,1-.42,5.22,9.87,9.87,0,0,1-.67,1,10.74,10.74,0,0,1-1.73,1.7,21.48,21.48,0,0,1-4.38,2.57,19.54,19.54,0,0,0,5-1.67,11.67,11.67,0,0,0,2.25-1.53,9.71,9.71,0,0,0,1-1,7.9,7.9,0,0,0,.83-1.2,8.26,8.26,0,0,0,.84-5.81,9.31,9.31,0,0,0-1.11-2.81A10.61,10.61,0,0,0,62.74,5a11.8,11.8,0,0,0-5.35-2.81,18.16,18.16,0,0,0-5.81-.38A22.89,22.89,0,0,0,46,3c-.46.16-.95.37-1.41.57s-.92.44-1.36.71A15.54,15.54,0,0,0,40.71,6a17.7,17.7,0,0,0-2.14,2.21,17.47,17.47,0,0,0-1.72,2.6c-.18.35-.34.71-.5,1.07A117.29,117.29,0,0,0,38.42,0,114.24,114.24,0,0,1,33,17.46a96.62,96.62,0,0,1-8.25,16.09A84.91,84.91,0,0,1,13.6,47.48,71.87,71.87,0,0,1,7,53.33c-1.15.9-2.32,1.76-3.51,2.55-.6.4-1.2.78-1.8,1.14-.3.17-.6.36-.9.52l-.44.24-.21.11L0,58l3.65,6.62L4,64.38l.28-.19.53-.37c.35-.24.68-.49,1-.74q1-.75,1.93-1.53c1.26-1,2.45-2.12,3.61-3.23a78,78,0,0,0,6.46-7A89.64,89.64,0,0,0,28,35.43a99.45,99.45,0,0,0,6.76-17.35c.11-.39.2-.79.31-1.18v0a15.2,15.2,0,0,0,4.61,11.8,13.43,13.43,0,0,0,2.68,2l.75.41c.26.13.52.24.79.35l.4.17.35.13.69.25a42.83,42.83,0,0,0,5.43,1.38c1.74.34,3.43.6,5,.92.79.16,1.54.34,2.28.53.36.1.73.2,1.08.32a10.36,10.36,0,0,1,1,.36,9.39,9.39,0,0,1,5.4,4.94,12.85,12.85,0,0,1,.76,7.9,17.78,17.78,0,0,1-3.67,7.71,18.66,18.66,0,0,1-3.18,3,18.24,18.24,0,0,1-3.84,2.27,21.83,21.83,0,0,1-8.88,1.85,22.75,22.75,0,0,1-4.62-.57,21.12,21.12,0,0,1-2.27-.63c-.38-.11-.74-.28-1.11-.42s-.75-.27-1.1-.46a21.77,21.77,0,0,1-2.12-1.11c-.34-.21-.7-.4-1-.63l-1-.7-.5-.35L32.54,58l-.94-.78-.88-.86a10.3,10.3,0,0,1-.86-.88A33.39,33.39,0,0,1,24.38,47a28.6,28.6,0,0,0,3.9,9.69,11.69,11.69,0,0,0,.76,1.1l.81,1.08.9,1,.45.51c.16.16.32.31.49.47l1,.94c.34.3.7.57,1.06.86A25,25,0,0,0,36,64.29,25.64,25.64,0,0,0,46.43,68a25.06,25.06,0,0,0,5.68,0,24.47,24.47,0,0,0,5.58-1.29,24.14,24.14,0,0,0,9.67-6.36A23.44,23.44,0,0,0,72.9,49.88,20.5,20.5,0,0,0,73.42,43.79Z" transform="translate(0)"/></svg>