<svg width="0" height="0" class="hidden">
  <symbol xmlns="http://www.w3.org/2000/svg" viewBox="0 0 202 202" id="img-card-cms">
    <g clip-path="url(#clip0)">
      <path d="M197.42 37.242h-80.27c-1.928-8.919-10.124-15.91-19.525-15.91-9.642 0-17.596 6.75-19.525 15.91H4.34A4.32 4.32 0 000 41.582a4.32 4.32 0 004.339 4.338h73.52c1.929 8.919 10.124 15.91 19.525 15.91 9.642 0 17.597-6.75 19.525-15.91h80.511a4.32 4.32 0 004.339-4.339 4.32 4.32 0 00-4.339-4.339zm-99.795 16.15c-6.267 0-11.57-5.061-11.57-11.57 0-6.508 5.062-11.57 11.57-11.57 6.268 0 11.571 5.062 11.571 11.57 0 6.267-5.062 11.57-11.57 11.57zm100.036 43.39H75.931c-1.929-8.92-10.124-15.91-19.525-15.91-9.642 0-17.597 6.75-19.525 15.91H4.339A4.321 4.321 0 000 101.12a4.32 4.32 0 004.339 4.338H36.88c1.928 8.919 10.124 15.91 19.525 15.91 9.642 0 17.596-6.75 19.525-15.91h121.73a4.32 4.32 0 004.339-4.338 4.32 4.32 0 00-4.339-4.34zM56.406 112.69c-6.268 0-11.57-5.062-11.57-11.57 0-6.268 5.302-11.57 11.57-11.57 6.267 0 11.57 5.061 11.57 11.57 0 6.267-5.062 11.57-11.57 11.57zm141.014 43.39h-37.845c-1.928-8.919-10.124-15.909-19.525-15.909-9.642 0-17.597 6.749-19.525 15.909H4.339A4.32 4.32 0 000 160.419a4.321 4.321 0 004.339 4.339h115.945c1.928 8.919 10.124 15.909 19.525 15.909 9.642 0 17.597-6.749 19.525-15.909h38.086a4.321 4.321 0 004.339-4.339 4.32 4.32 0 00-4.339-4.339zm-57.611 16.15c-6.267 0-11.57-5.062-11.57-11.57s5.303-11.571 11.57-11.571 11.57 5.063 11.57 11.571-5.062 11.57-11.57 11.57z"></path>
    </g>
    <defs>
      <clipPath id="clip0">
        <path d="M0 0h202v202H0z"></path>
      </clipPath>
    </defs>
  </symbol>
  <symbol xmlns="http://www.w3.org/2000/svg" viewBox="0 0 202 202" id="img-card-design">
    <path d="M186.219 9.469H15.781a9.48 9.48 0 00-9.469 9.469v164.124a9.48 9.48 0 009.47 9.469h170.437a9.48 9.48 0 009.469-9.469V18.937a9.48 9.48 0 00-9.469-9.468zM15.781 15.78H186.22a3.16 3.16 0 013.156 3.156V34.72H12.625V18.937a3.16 3.16 0 013.156-3.156zM186.22 186.22H15.781a3.16 3.16 0 01-3.156-3.157V41.032h176.75v142.03a3.162 3.162 0 01-3.156 3.157z"></path>
    <path d="M47.344 28.406a3.156 3.156 0 100-6.312 3.156 3.156 0 000 6.312zm-12.625 0a3.156 3.156 0 100-6.312 3.156 3.156 0 000 6.312zm-12.625 0a3.156 3.156 0 100-6.312 3.156 3.156 0 000 6.312zm15.781 119.938a12.623 12.623 0 00-9.515 20.922 12.625 12.625 0 0014.644 3.238 12.625 12.625 0 00-5.129-24.16zm4.749 16.783l-.01.012-.036.039a6.314 6.314 0 01-7.28 1.554 6.314 6.314 0 01-2.126-1.554l-.034-.039-.012-.013a6.315 6.315 0 011.33-9.465 6.314 6.314 0 019.168 2.699 6.31 6.31 0 01-1 6.766v.001zM101 148.344a12.623 12.623 0 00-9.514 20.922 12.625 12.625 0 0014.644 3.238 12.617 12.617 0 004.385-3.238 12.623 12.623 0 00-2.681-18.912 12.624 12.624 0 00-6.834-2.01zm4.749 16.783l-.011.012-.035.039a6.31 6.31 0 01-9.406 0l-.034-.039-.012-.013a6.315 6.315 0 011.33-9.465 6.314 6.314 0 019.168 2.699 6.314 6.314 0 01-1 6.766v.001zm-36.311-16.783a12.623 12.623 0 00-9.515 20.922 12.625 12.625 0 0014.644 3.238 12.625 12.625 0 00-5.13-24.16zm4.748 16.783l-.01.012-.035.039a6.314 6.314 0 01-7.28 1.554 6.314 6.314 0 01-2.127-1.554c-.01-.013-.023-.025-.034-.039l-.011-.013a6.315 6.315 0 011.329-9.465 6.314 6.314 0 019.168 2.699 6.31 6.31 0 01-1 6.766v.001zm58.377-16.783a12.624 12.624 0 109.373 21.08c.048-.053.096-.105.141-.158a12.625 12.625 0 00-9.514-20.922zm4.748 16.783l-.01.012-.035.039a6.32 6.32 0 01-4.703 2.104 6.323 6.323 0 01-4.704-2.104l-.034-.039-.011-.013a6.313 6.313 0 119.497 0v.001zm26.814-16.783a12.624 12.624 0 10.001 25.249 12.624 12.624 0 00-.001-25.249zm4.749 16.783l-.011.012-.035.039a6.31 6.31 0 01-9.406 0l-.035-.039-.011-.013a6.314 6.314 0 1110.498-6.766 6.314 6.314 0 01-1 6.766v.001zm4.72-111.471H28.406a3.157 3.157 0 00-3.156 3.157v75.749a3.155 3.155 0 003.156 3.157h145.188a3.157 3.157 0 003.156-3.157v-75.75a3.16 3.16 0 00-3.156-3.156zm-3.156 75.75H31.563V59.969h138.875v69.437z"></path>
    <path d="M41.031 91.531h6.313a3.157 3.157 0 000-6.312H41.03a3.157 3.157 0 000 6.312zm63.125 25.25h56.813a3.158 3.158 0 002.525-5.05l-18.938-25.25a3.156 3.156 0 00-5.05 0l-5.6 7.467-8.106-13.51a3.154 3.154 0 00-4.261-1.122 3.156 3.156 0 00-1.152 1.123L101.45 112a3.151 3.151 0 00-.04 3.179 3.158 3.158 0 002.746 1.601zm37.875-23.146l12.625 16.834h-10.838l-6.403-10.676 4.616-6.158zm-18.937-5.438l13.363 22.272h-26.726l13.363-22.272zm15.781-9.291a3.156 3.156 0 100-6.312 3.156 3.156 0 000 6.312zm-66.281 31.563H59.969a3.156 3.156 0 100 6.312h12.625a3.156 3.156 0 100-6.312zM56.813 88.375a3.156 3.156 0 003.156 3.156H91.53a3.157 3.157 0 000-6.312H59.97a3.157 3.157 0 00-3.157 3.156zm-15.782 15.781h31.563a3.156 3.156 0 100-6.312H41.03a3.157 3.157 0 000 6.312zm50.5-6.312H85.22a3.157 3.157 0 000 6.312h6.312a3.156 3.156 0 100-6.312zm-50.5-18.938H59.97a3.157 3.157 0 000-6.312H41.03a3.157 3.157 0 000 6.312z"></path>
  </symbol>
  <symbol xmlns="http://www.w3.org/2000/svg" viewBox="0 0 182 182" id="img-card-logo">
    <path d="M179.844 170.037L126.841 9.634c-1.785-5.401-7.639-9.632-13.328-9.632L68.487 0C62.798 0 56.944 4.231 55.16 9.632L2.156 170.037c-.993 3.002-.608 6.044 1.055 8.344 1.661 2.3 4.428 3.619 7.59 3.619h34.585a27.392 27.392 0 0026.054-18.832L91 103.977l19.558 59.192A27.392 27.392 0 00136.613 182h34.586c3.162 0 5.929-1.319 7.591-3.619 1.662-2.301 2.047-5.342 1.054-8.344zm-115.456-9.199a19.978 19.978 0 01-19.002 13.733H10.802c-.75 0-1.322-.197-1.571-.542-.249-.345-.257-.95-.022-1.662L62.212 11.963c.784-2.373 3.775-4.534 6.275-4.534h44.271c.75 0 1.322.197 1.571.542.249.345.257.95.022 1.662L64.388 160.838zm108.381 13.191c-.249.344-.821.542-1.571.542h-34.586a19.972 19.972 0 01-18.999-13.732l-22.701-68.7 25.684-77.728 52.196 157.957c.234.711.226 1.317-.023 1.661z"></path>
    <path d="M55.656 70.145a3.715 3.715 0 00-4.692 2.361l-11.973 36.231a3.714 3.714 0 107.053 2.331l11.973-36.23a3.714 3.714 0 00-2.36-4.693zm4.54-13.738a3.715 3.715 0 00-4.693 2.361l-.552 1.67a3.715 3.715 0 007.053 2.332l.553-1.67a3.713 3.713 0 00-2.361-4.693z"></path>
  </symbol>
  <symbol xmlns="http://www.w3.org/2000/svg" viewBox="0 0 182 182" id="img-card-server">
    <path d="M172.9 54.6a9.1 9.1 0 009.1-9.1V9.1a9.1 9.1 0 00-9.1-9.1H9.1A9.1 9.1 0 000 9.1v36.4a9.1 9.1 0 009.1 9.1h9.1v9.1H9.1A9.1 9.1 0 000 72.8v36.4a9.1 9.1 0 009.1 9.1h9.1v9.1H9.1a9.1 9.1 0 00-9.1 9.1v36.4a9.1 9.1 0 009.1 9.1h163.8a9.1 9.1 0 009.1-9.1v-36.4a9.1 9.1 0 00-9.1-9.1h-9.1v-9.1h9.1a9.1 9.1 0 009.1-9.1V72.8a9.1 9.1 0 00-9.1-9.1h-9.1v-9.1h9.1zm0 78.867a3.033 3.033 0 013.033 3.033v36.4a3.033 3.033 0 01-3.033 3.033H9.1a3.033 3.033 0 01-3.033-3.033v-36.4a3.033 3.033 0 013.033-3.033h163.8zM24.267 127.4v-9.1h6.066v9.1h-6.066zm12.133 0v-9.1h109.2v9.1H36.4zm115.267 0v-9.1h6.066v9.1h-6.066zM172.9 69.767a3.033 3.033 0 013.033 3.033v36.4a3.033 3.033 0 01-3.033 3.033H9.1a3.033 3.033 0 01-3.033-3.033V72.8A3.033 3.033 0 019.1 69.767h163.8zM24.267 63.7v-9.1h6.066v9.1h-6.066zm12.133 0v-9.1h109.2v9.1H36.4zm115.267 0v-9.1h6.066v9.1h-6.066zM9.1 48.533A3.033 3.033 0 016.067 45.5V9.1A3.033 3.033 0 019.1 6.067h163.8a3.033 3.033 0 013.033 3.033v36.4a3.033 3.033 0 01-3.033 3.033H9.1z"></path>
    <path d="M97.067 24.267H35.842a9.1 9.1 0 100 6.067h61.225a3.033 3.033 0 000-6.067zM27.3 30.333a3.033 3.033 0 110-6.067 3.033 3.033 0 010 6.067zm112.233-18.2h-6.066V18.2h6.066v-6.067zm12.134 0H145.6V18.2h6.067v-6.067zm12.133 0h-6.067V18.2h6.067v-6.067zm-36.4 0h-6.067V18.2h6.067v-6.067zm-12.133 0H109.2V18.2h6.067v-6.067zm24.266 12.134h-6.066v6.066h6.066v-6.066zm12.134 0H145.6v6.066h6.067v-6.066zm12.133 0h-6.067v6.066h6.067v-6.066zm-36.4 0h-6.067v6.066h6.067v-6.066zm-12.133 0H109.2v6.066h6.067v-6.066zM139.533 36.4h-6.066v6.067h6.066V36.4zm12.134 0H145.6v6.067h6.067V36.4zm12.133 0h-6.067v6.067h6.067V36.4zm-36.4 0h-6.067v6.067h6.067V36.4zm-12.133 0H109.2v6.067h6.067V36.4zm-18.2 51.567H35.842a9.1 9.1 0 100 6.067h61.225a3.034 3.034 0 000-6.067zM27.3 94.033a3.033 3.033 0 110-6.066 3.033 3.033 0 010 6.066zm112.233-18.2h-6.066V81.9h6.066v-6.067zm12.134 0H145.6V81.9h6.067v-6.067zm12.133 0h-6.067V81.9h6.067v-6.067zm-36.4 0h-6.067V81.9h6.067v-6.067zm-12.133 0H109.2V81.9h6.067v-6.067zm24.266 12.134h-6.066v6.066h6.066v-6.066zm12.134 0H145.6v6.066h6.067v-6.066zm12.133 0h-6.067v6.066h6.067v-6.066zm-36.4 0h-6.067v6.066h6.067v-6.066zm-12.133 0H109.2v6.066h6.067v-6.066zm24.266 12.133h-6.066v6.067h6.066V100.1zm12.134 0H145.6v6.067h6.067V100.1zm12.133 0h-6.067v6.067h6.067V100.1zm-36.4 0h-6.067v6.067h6.067V100.1zm-12.133 0H109.2v6.067h6.067V100.1zm-18.2 51.567H35.842a9.099 9.099 0 00-11.613-5.546 9.1 9.1 0 00-5.546 11.612 9.099 9.099 0 0017.159 0h61.225a3.033 3.033 0 100-6.066zM27.3 157.733a3.033 3.033 0 110-6.066 3.033 3.033 0 010 6.066zm112.233-18.2h-6.066v6.067h6.066v-6.067zm12.134 0H145.6v6.067h6.067v-6.067zm12.133 0h-6.067v6.067h6.067v-6.067zm-36.4 0h-6.067v6.067h6.067v-6.067zm-12.133 0H109.2v6.067h6.067v-6.067zm24.266 12.134h-6.066v6.066h6.066v-6.066zm12.134 0H145.6v6.066h6.067v-6.066zm12.133 0h-6.067v6.066h6.067v-6.066zm-36.4 0h-6.067v6.066h6.067v-6.066zm-12.133 0H109.2v6.066h6.067v-6.066zm24.266 12.133h-6.066v6.067h6.066V163.8zm12.134 0H145.6v6.067h6.067V163.8zm12.133 0h-6.067v6.067h6.067V163.8zm-36.4 0h-6.067v6.067h6.067V163.8zm-12.133 0H109.2v6.067h6.067V163.8z"></path>
  </symbol>
  <symbol xmlns="http://www.w3.org/2000/svg" viewBox="0 0 202 202" id="img-card-verstka">
    <path d="M31.236 31.234H0V0h31.236v31.234zm-25.3-5.936H25.3V5.936H5.936v19.362zM202 31.234h-31.234V0H202v31.234zm-25.298-5.936h19.362V5.936h-19.362v19.362zM31.236 202H0v-31.234h31.236V202zm-25.3-5.936H25.3v-19.362H5.936v19.362zM202 202h-31.234v-31.234H202V202zm-25.298-5.936h19.362v-19.362h-19.362v19.362zM40.916 12.65h6.325v5.936h-6.325V12.65zm12.649 0h6.325v5.936h-6.325V12.65zm12.65 0h6.323v5.936h-6.323V12.65zm12.648 0h6.325v5.936h-6.325V12.65zm12.65 0h6.325v5.936h-6.325V12.65zm12.649 0h6.325v5.936h-6.325V12.65zm12.65 0h6.323v5.936h-6.323V12.65zm12.648 0h6.325v5.936h-6.325V12.65zm12.65 0h6.325v5.936h-6.325V12.65zm12.65 0h6.324v5.936h-6.324V12.65zM40.916 186.576h6.325v5.937h-6.325v-5.937zm12.649 0h6.325v5.937h-6.325v-5.937zm12.65 0h6.323v5.937h-6.323v-5.937zm12.648 0h6.325v5.937h-6.325v-5.937zm12.65 0h6.325v5.937h-6.325v-5.937zm12.649 0h6.325v5.937h-6.325v-5.937zm12.65 0h6.323v5.937h-6.323v-5.937zm12.648 0h6.325v5.937h-6.325v-5.937zm12.65 0h6.325v5.937h-6.325v-5.937zm12.65 0h6.324v5.937h-6.324v-5.937zM12.65 40.916h5.936v120.168H12.65V40.916zm170.764 0h5.936v120.168h-5.936V40.916z"></path>
    <path d="M12.455 12.65h6.325v5.936h-6.325V12.65zm170.765 0h6.325v5.936h-6.325V12.65zm0 170.764h6.325v5.936h-6.325v-5.936zm-170.765 0h6.325v5.936h-6.325v-5.936zm157.922-95.258H31.623V44.272H101v5.937H37.56v32.01h126.88V50.21h-53.954v-5.937h59.89v43.884zm-63.246 72.734H31.623v-34.592h5.936v28.656h63.635v-50.986H37.559v12.843h-5.936v-18.78h75.508v62.859zm63.246-37.947h-25.105v-5.937h19.169v-13.038H119.78v13.038h16.005v5.937h-21.941V98.032h56.533v24.911zm0 37.947h-56.533v-31.234h56.533v9.291h-5.936v-3.356H119.78v19.363h44.661v-6.519h5.936v12.455z"></path>
    <path d="M66.41 119.974h5.936v18.973h-5.937v-18.973z"></path>
    <path d="M59.89 126.494h18.973v5.934H59.89v-5.934zm-9.681-57.117h-5.937V56.922h12.456v5.936h-6.52v6.52zm101.388.195h6.325v5.934h-6.325v-5.934zm-12.65 0h6.325v5.934h-6.325v-5.934z"></path>
  </symbol>
</svg>