<svg width="0" height="0" class="hidden">
  <symbol xmlns="http://www.w3.org/2000/svg" viewBox="0 0 15 15" id="Vector">
    <path d="M7.5 0C3.358 0 0 3.109 0 6.944c0 2.185 1.09 4.134 2.795 5.408V15l2.553-1.402a8.05 8.05 0 002.152.291c4.142 0 7.5-3.109 7.5-6.944S11.642 0 7.5 0zm.745 9.352l-1.91-2.038L2.61 9.352 6.71 5l1.956 2.037L12.345 5l-4.1 4.352z"></path>
  </symbol>
  <symbol xmlns="http://www.w3.org/2000/svg" viewBox="0 0 15 15" id="Vector-1">
    <path d="M15 7.5A7.5 7.5 0 007.5 0 7.5 7.5 0 000 7.5 7.5 7.5 0 007.5 15c.044 0 .088 0 .132-.003V9.161H6.02V7.283h1.61V5.9c0-1.602.98-2.475 2.409-2.475.686 0 1.275.05 1.444.073v1.676H10.5c-.776 0-.929.369-.929.911V7.28h1.86l-.242 1.878H9.57v5.552A7.502 7.502 0 0015 7.5z"></path>
  </symbol>
  <symbol xmlns="http://www.w3.org/2000/svg" viewBox="0 0 9 9" id="Vector-2">
    <path d="M4.5.75a3.75 3.75 0 100 7.5 3.75 3.75 0 000-7.5zm0 6.094A2.347 2.347 0 012.156 4.5 2.346 2.346 0 014.5 2.156 2.346 2.346 0 016.844 4.5 2.347 2.347 0 014.5 6.844z"></path>
  </symbol>
  <symbol xmlns="http://www.w3.org/2000/svg" viewBox="0 0 15 15" id="Vector-3">
    <path d="M14.568 9.091c1.086-4.88-3.19-9.315-8.212-8.464C3.63-1.065 0 .847 0 4.091c0 .754.208 1.46.57 2.07-1.01 4.892 3.302 9.262 8.32 8.353 3.546 1.876 7.466-1.865 5.678-5.423zm-4.774 2.944c-1.317.542-3.485.545-4.797-.142-1.87-.997-2.203-3.243-.59-3.243 1.217 0 .832 1.418 2.06 1.996.564.261 1.776.288 2.48-.187.696-.466.632-1.198.254-1.548-1.002-.925-3.87-.558-5.18-2.177-.57-.703-.677-1.942.023-2.84 1.22-1.57 4.8-1.666 6.34-.48 1.421 1.1 1.037 2.56-.11 2.56-1.379 0-.654-1.806-2.88-1.806-1.615 0-2.25 1.148-1.113 1.707 1.54.766 5.468.51 5.468 3.502-.003 1.245-.766 2.173-1.955 2.658z"></path>
  </symbol>
  <symbol xmlns="http://www.w3.org/2000/svg" viewBox="0 0 15 15" id="Vector-4">
    <path d="M.265 7.232l3.456 1.29 1.338 4.303a.407.407 0 00.646.194l1.927-1.57a.575.575 0 01.7-.02l3.475 2.523c.24.174.579.043.639-.246L14.99 1.46a.407.407 0 00-.545-.463L.26 6.47a.408.408 0 00.004.762zm4.579.604l6.754-4.16c.122-.075.247.089.143.185L6.166 9.043a1.156 1.156 0 00-.358.692l-.19 1.407c-.025.188-.29.207-.341.025L4.547 8.6a.68.68 0 01.297-.765z"></path>
  </symbol>
  <symbol xmlns="http://www.w3.org/2000/svg" viewBox="0 0 268.77 75.68" id="logo">
    <path d="M18.28 14.68h101.75v3H18.28zm130.25 0h101.75v3H148.53zm-130.25 58h232v3h-232zm1.62-18.2a7 7 0 001-3.61 6.8 6.8 0 00-.63-3 5 5 0 00-1.68-2 8.11 8.11 0 00-2.19-1l-1.4-.36 1.33-.51a6.2 6.2 0 002.11-1.37 5.79 5.79 0 001.22-1.9 6.24 6.24 0 00.42-2.29 6 6 0 00-.8-3A5.3 5.3 0 0017 33.27a9.69 9.69 0 00-4.21-.75H1v2.64h2.56v20H1v2.64h10.84a12.68 12.68 0 005.34-.8 6.29 6.29 0 002.72-2.52zm-12-18.71h2.87a9.41 9.41 0 013.07.34 2.88 2.88 0 011.49 1.26 4 4 0 01.49 2 3.92 3.92 0 01-.52 2 3.25 3.25 0 01-1.58 1.35 7.86 7.86 0 01-3 .42h-2.8zm7.62 17a3.52 3.52 0 01-1.8 1.49 7.53 7.53 0 01-2.45.34H7.89v-8.54h3.3a7.25 7.25 0 013 .46A3.37 3.37 0 0115.74 48a4.55 4.55 0 01.51 2.22 4.76 4.76 0 01-.71 2.59zM141.22 18a5.44 5.44 0 00.75-2.79 5.27 5.27 0 00-.49-2.3 3.87 3.87 0 00-1.3-1.56 6.28 6.28 0 00-1.7-.75l-1-.32 1-.41a4.8 4.8 0 001.64-1.06 4.49 4.49 0 00.88-1.47 4.83 4.83 0 00.33-1.77 4.65 4.65 0 00-.62-2.36A4.11 4.11 0 00139 1.58a7.5 7.5 0 00-3.28-.58h-9.14v2h2v15.57h-2v2H135a9.82 9.82 0 004.13-.68 4.87 4.87 0 002.09-1.89zm-9.28-14.49h2.23a7.29 7.29 0 012.38.27 2.23 2.23 0 011.15 1 3.09 3.09 0 01.38 1.57 3 3 0 01-.4 1.56 2.51 2.51 0 01-1.22 1 6.09 6.09 0 01-2.29.32h-2.23zm5.91 13.2a2.73 2.73 0 01-1.39 1.16 5.83 5.83 0 01-1.9.26h-2.62v-6.65h2.56a5.62 5.62 0 012.29.36A2.61 2.61 0 01138 13a3.52 3.52 0 01.4 1.72 3.69 3.69 0 01-.56 1.99zM26.5 55.21h-2.62v2.64h19.05v-5.97h-2.32v2.76l-9.78.01.01-8.67h9.3V43.3h-9.3v-7.57h9.76l.01 2.34 2.32.01v-5.56H23.88v2.65h2.61l.01 20.04zm132.71 0l-2.62-.01v2.65h19.06v-5.98h-2.32l-.01 2.77h-9.78l.01-8.66h9.3v-2.69l-9.3.01v-7.57h9.77l.01 2.34h2.32v-5.55h-19.06v2.64h2.62v20.05zm68.33 0l-2.62-.01v2.65h19.05v-5.98h-2.32v2.77h-9.78l.01-8.66h9.3v-2.69l-9.3.01v-7.57h9.76l.01 2.34h2.32v-5.55h-19.05v2.64h2.61l.01 20.05zM61.68 56a7.53 7.53 0 001.57-2.46 7.64 7.64 0 00.47-2.68 7.48 7.48 0 00-.47-2.63 6.4 6.4 0 00-1.15-2 7.74 7.74 0 00-2-1.53 14.43 14.43 0 00-2.14-1l-3.62-1.28A10.29 10.29 0 0151 40.65a3 3 0 01-.61-3.9 4 4 0 011.56-1.38 7 7 0 013.77-.55 7.23 7.23 0 014.75 2l.16.15v2.46h2.21v-6.28c-.59-.32-2.64-1.2-7.38-1.2a13.68 13.68 0 00-2.75.31 7.86 7.86 0 00-3 1 7.67 7.67 0 00-.87.58 6.76 6.76 0 00-.67.58A6.38 6.38 0 0047 35.9v.1l-.06.14a7.1 7.1 0 00-.31.69 7.65 7.65 0 00-.47 2.68 7.49 7.49 0 00.46 2.63 6.41 6.41 0 001.15 2 7.74 7.74 0 002 1.53 14.58 14.58 0 002.15 1l3.6 1.33a10.31 10.31 0 013.36 1.7 3 3 0 01.61 3.9 3.08 3.08 0 01-1.37 1.19 8.47 8.47 0 01-3.81.82 8.25 8.25 0 01-5.72-1.92l-.15-.14-.08-2.55h-2.3v6.18a23.14 23.14 0 008.38 1.25 13.68 13.68 0 002.75-.31A10.36 10.36 0 0061 56.55a4.75 4.75 0 00.68-.55zm54.04 0a7.53 7.53 0 001.57-2.46 7.64 7.64 0 00.47-2.68 7.48 7.48 0 00-.47-2.63 6.4 6.4 0 00-1.15-2 7.74 7.74 0 00-2-1.53 14.43 14.43 0 00-2.14-1l-3.62-1.28a10.29 10.29 0 01-3.36-1.7 3 3 0 01-.61-3.9 4 4 0 011.56-1.38 7 7 0 013.77-.55 7.23 7.23 0 014.75 2l.16.15v2.46h2.21v-6.35c-.59-.32-2.64-1.2-7.38-1.2a13.68 13.68 0 00-2.75.31 7.86 7.86 0 00-3 1 7.67 7.67 0 00-.87.58 6.76 6.76 0 00-.67.58 6.38 6.38 0 00-1.13 1.5v.11l-.06.14a7.1 7.1 0 00-.31.69 7.65 7.65 0 00-.47 2.68 7.49 7.49 0 00.46 2.63 6.41 6.41 0 001.15 2 7.74 7.74 0 002 1.53 14.58 14.58 0 002.15 1l3.58 1.3a10.31 10.31 0 013.36 1.7 3 3 0 01.61 3.9 3.08 3.08 0 01-1.37 1.19 8.47 8.47 0 01-3.81.82 8.26 8.26 0 01-5.72-1.92l-.15-.14-.07-2.55h-2.31v6.18a23.14 23.14 0 008.38 1.25 13.68 13.68 0 002.75-.31 10.36 10.36 0 003.85-1.56 4.75 4.75 0 00.64-.56zM65.78 32.52v5.53h1.83l.01-2.89h6.54v20.05h-2.61v2.64h9.57v-2.64h-2.61V35.16h6.52l.01 2.89h1.88v-5.53H65.78zm66.66-.01v5.54h1.84v-2.9h6.54l.01 20.05h-2.61v2.65h9.57V55.2h-2.61V35.15h6.52v2.9h1.89v-5.54l-16.71.01-4.44-.01zm-9.99 22.69h-2.61v2.65h9.57V55.2h-2.61V35.16h2.61v-2.64h-9.57v2.64l2.61.01V55.2zm68.85 0h-2.61v2.65h9.56V55.2h-2.61l.01-20.04h2.6v-2.64h-9.56v2.64l2.6.01.01 20.03zm28.83-1.41a12.53 12.53 0 002-3.89 16.9 16.9 0 00.67-4.95 16.16 16.16 0 00-1.31-6.81 9.84 9.84 0 00-3.49-4.21 10.7 10.7 0 00-5.88-1.41h-10.84v2.64h2.61v20h-2.6v2.64h9.5a18.29 18.29 0 003.37-.42 10.88 10.88 0 003.19-1.06 9.63 9.63 0 002.78-2.53zm-5.61-.17a10.55 10.55 0 01-4.47.77h-1.85V35.73h2.89a6.51 6.51 0 013.8 1 6.93 6.93 0 012.23 3.22 14.29 14.29 0 01.88 5.15 13.48 13.48 0 01-.92 5.21 6.2 6.2 0 01-2.56 3.31zM260 32.52h-4.13l-7.36 22.68h-1.57v2.64h7.38v-2.63h-2.79l1.76-5.76h7.34l1.55 5.77h-2.65v2.64h9.24V55.2h-1.56zm-5.82 14.17l2.82-9.48 2.75 9.48z"></path>
    <path d="M17.28 13.68h101.75v3H17.28zm130.25 0h101.75v3H147.53zm-130.25 58h232v3h-232zm1.62-18.2a7 7 0 001-3.61 6.8 6.8 0 00-.63-3 5 5 0 00-1.68-2 8.11 8.11 0 00-2.19-1l-1.4-.36 1.33-.51a6.2 6.2 0 002.11-1.37 5.79 5.79 0 001.22-1.9 6.24 6.24 0 00.42-2.29 6 6 0 00-.8-3A5.3 5.3 0 0016 32.27a9.69 9.69 0 00-4.21-.75H0v2.64h2.56v20H0v2.64h10.84a12.68 12.68 0 005.34-.8 6.29 6.29 0 002.72-2.52zm-12-18.71h2.89a9.41 9.41 0 013.07.34 2.88 2.88 0 011.49 1.26 4 4 0 01.49 2 3.92 3.92 0 01-.52 2 3.25 3.25 0 01-1.58 1.35 7.86 7.86 0 01-3 .42H6.92zm7.62 17a3.52 3.52 0 01-1.8 1.49 7.53 7.53 0 01-2.45.34H6.89v-8.54h3.3a7.25 7.25 0 013 .46A3.37 3.37 0 0114.74 47a4.55 4.55 0 01.51 2.22 4.76 4.76 0 01-.71 2.59zM140.22 17a5.44 5.44 0 00.75-2.79 5.27 5.27 0 00-.49-2.3 3.87 3.87 0 00-1.3-1.56 6.28 6.28 0 00-1.7-.75l-1-.32 1-.41a4.8 4.8 0 001.64-1.06 4.49 4.49 0 00.88-1.47 4.83 4.83 0 00.33-1.77 4.65 4.65 0 00-.62-2.36A4.11 4.11 0 00138 .58a7.5 7.5 0 00-3.28-.58h-9.14v2h2v15.57h-2v2H134a9.82 9.82 0 004.13-.68 4.87 4.87 0 002.09-1.89zm-9.28-14.49h2.23a7.29 7.29 0 012.38.27 2.23 2.23 0 011.15 1 3.09 3.09 0 01.38 1.57 3 3 0 01-.4 1.56 2.51 2.51 0 01-1.22 1 6.09 6.09 0 01-2.29.32h-2.23zm5.91 13.2a2.73 2.73 0 01-1.39 1.16 5.83 5.83 0 01-1.9.26h-2.62v-6.65h2.56a5.62 5.62 0 012.29.36A2.61 2.61 0 01137 12a3.52 3.52 0 01.4 1.72 3.69 3.69 0 01-.56 1.99zM25.5 54.21h-2.62v2.64h19.05v-5.97h-2.32v2.76l-9.78.01.01-8.67h9.3V42.3h-9.3v-7.57h9.76l.01 2.34 2.32.01v-5.56H22.88v2.65h2.61l.01 20.04zm132.71 0l-2.62-.01v2.65h19.06v-5.98h-2.32l-.01 2.77h-9.78l.01-8.66h9.3v-2.69l-9.3.01v-7.57h9.77l.01 2.34h2.32v-5.55h-19.06v2.64h2.62v20.05zm68.33 0l-2.62-.01v2.65h19.05v-5.98h-2.32v2.77h-9.78l.01-8.66h9.3v-2.69l-9.3.01v-7.57h9.76l.01 2.34h2.32v-5.55h-19.05v2.64h2.61l.01 20.05zM60.68 55a7.53 7.53 0 001.57-2.46 7.64 7.64 0 00.47-2.68 7.48 7.48 0 00-.47-2.63 6.4 6.4 0 00-1.15-2 7.74 7.74 0 00-2-1.53 14.43 14.43 0 00-2.14-1l-3.62-1.28A10.29 10.29 0 0150 39.65a3 3 0 01-.61-3.9 4 4 0 011.56-1.38 7 7 0 013.77-.55 7.23 7.23 0 014.75 2l.16.15v2.46h2.21v-6.28c-.59-.32-2.64-1.2-7.38-1.2a13.68 13.68 0 00-2.75.31 7.86 7.86 0 00-3 1 7.67 7.67 0 00-.87.58 6.76 6.76 0 00-.67.58A6.38 6.38 0 0046 34.9v.1l-.06.14a7.1 7.1 0 00-.31.69 7.65 7.65 0 00-.47 2.68 7.49 7.49 0 00.46 2.63 6.41 6.41 0 001.15 2 7.74 7.74 0 002 1.53 14.58 14.58 0 002.15 1l3.6 1.33a10.31 10.31 0 013.36 1.7 3 3 0 01.61 3.9 3.08 3.08 0 01-1.37 1.19 8.47 8.47 0 01-3.81.82 8.25 8.25 0 01-5.72-1.92l-.15-.14-.08-2.55h-2.3v6.18a23.14 23.14 0 008.38 1.25 13.68 13.68 0 002.75-.31A10.36 10.36 0 0060 55.55a4.75 4.75 0 00.68-.55zm54.04 0a7.53 7.53 0 001.57-2.46 7.64 7.64 0 00.47-2.68 7.48 7.48 0 00-.47-2.63 6.4 6.4 0 00-1.15-2 7.74 7.74 0 00-2-1.53 14.43 14.43 0 00-2.14-1l-3.62-1.28a10.29 10.29 0 01-3.36-1.7 3 3 0 01-.61-3.9 4 4 0 011.56-1.38 7 7 0 013.77-.55 7.23 7.23 0 014.75 2l.16.15v2.46h2.21v-6.35c-.59-.32-2.64-1.2-7.38-1.2a13.68 13.68 0 00-2.75.31 7.86 7.86 0 00-3 1 7.67 7.67 0 00-.87.58 6.76 6.76 0 00-.67.58 6.38 6.38 0 00-1.13 1.5v.11l-.06.14a7.1 7.1 0 00-.31.69 7.65 7.65 0 00-.47 2.68 7.49 7.49 0 00.46 2.63 6.41 6.41 0 001.15 2 7.74 7.74 0 002 1.53 14.58 14.58 0 002.15 1l3.58 1.3a10.31 10.31 0 013.36 1.7 3 3 0 01.61 3.9 3.08 3.08 0 01-1.37 1.19 8.47 8.47 0 01-3.81.82 8.26 8.26 0 01-5.72-1.92l-.15-.14-.07-2.55H99.1v6.18a23.14 23.14 0 008.38 1.25 13.68 13.68 0 002.75-.31 10.36 10.36 0 003.85-1.56 4.75 4.75 0 00.64-.56zM64.78 31.52v5.53h1.83l.01-2.89h6.54v20.05h-2.61v2.64h9.57v-2.64h-2.61V34.16h6.52l.01 2.89h1.88v-5.53H64.78zm66.66-.01v5.54h1.84v-2.9h6.54l.01 20.05h-2.61v2.65h9.57V54.2h-2.61V34.15h6.52v2.9h1.89v-5.54l-16.71.01-4.44-.01zm-9.99 22.69h-2.61v2.65h9.57V54.2h-2.61V34.16h2.61v-2.64h-9.57v2.64l2.61.01V54.2zm68.85 0h-2.61v2.65h9.56V54.2h-2.61l.01-20.04h2.6v-2.64h-9.56v2.64l2.6.01.01 20.03zm28.83-1.41a12.53 12.53 0 002-3.89 16.9 16.9 0 00.67-4.95 16.16 16.16 0 00-1.31-6.81 9.84 9.84 0 00-3.49-4.21 10.7 10.7 0 00-5.88-1.41h-10.84v2.64h2.61v20h-2.6v2.64h9.5a18.29 18.29 0 003.37-.42 10.88 10.88 0 003.19-1.06 9.63 9.63 0 002.78-2.53zm-5.61-.17a10.55 10.55 0 01-4.47.77h-1.85V34.73h2.89a6.51 6.51 0 013.8 1 6.93 6.93 0 012.23 3.22 14.29 14.29 0 01.88 5.15 13.48 13.48 0 01-.92 5.21 6.2 6.2 0 01-2.56 3.31zM259 31.52h-4.13l-7.36 22.68h-1.57v2.64h7.38v-2.63h-2.79l1.76-5.76h7.34l1.55 5.77h-2.65v2.64h9.24V54.2h-1.56zm-5.82 14.17l2.82-9.48 2.75 9.48z"></path>
  </symbol>
</svg>