<svg width="0" height="0" class="hidden">
  <symbol xmlns="http://www.w3.org/2000/svg" viewBox="0 0 15 15" id="Vector">
    <path d="M7.5 0C3.358 0 0 3.109 0 6.944c0 2.185 1.09 4.134 2.795 5.408V15l2.553-1.402a8.05 8.05 0 002.152.291c4.142 0 7.5-3.109 7.5-6.944S11.642 0 7.5 0zm.745 9.352l-1.91-2.038L2.61 9.352 6.71 5l1.956 2.037L12.345 5l-4.1 4.352z"></path>
  </symbol>
  <symbol xmlns="http://www.w3.org/2000/svg" viewBox="0 0 15 15" id="Vector-1">
    <path d="M15 7.5A7.5 7.5 0 007.5 0 7.5 7.5 0 000 7.5 7.5 7.5 0 007.5 15c.044 0 .088 0 .132-.003V9.161H6.02V7.283h1.61V5.9c0-1.602.98-2.475 2.409-2.475.686 0 1.275.05 1.444.073v1.676H10.5c-.776 0-.929.369-.929.911V7.28h1.86l-.242 1.878H9.57v5.552A7.502 7.502 0 0015 7.5z"></path>
  </symbol>
  <symbol xmlns="http://www.w3.org/2000/svg" viewBox="0 0 9 9" id="Vector-2">
    <path d="M4.5.75a3.75 3.75 0 100 7.5 3.75 3.75 0 000-7.5zm0 6.094A2.347 2.347 0 012.156 4.5 2.346 2.346 0 014.5 2.156 2.346 2.346 0 016.844 4.5 2.347 2.347 0 014.5 6.844z"></path>
  </symbol>
  <symbol xmlns="http://www.w3.org/2000/svg" viewBox="0 0 15 15" id="Vector-3">
    <path d="M14.568 9.091c1.086-4.88-3.19-9.315-8.212-8.464C3.63-1.065 0 .847 0 4.091c0 .754.208 1.46.57 2.07-1.01 4.892 3.302 9.262 8.32 8.353 3.546 1.876 7.466-1.865 5.678-5.423zm-4.774 2.944c-1.317.542-3.485.545-4.797-.142-1.87-.997-2.203-3.243-.59-3.243 1.217 0 .832 1.418 2.06 1.996.564.261 1.776.288 2.48-.187.696-.466.632-1.198.254-1.548-1.002-.925-3.87-.558-5.18-2.177-.57-.703-.677-1.942.023-2.84 1.22-1.57 4.8-1.666 6.34-.48 1.421 1.1 1.037 2.56-.11 2.56-1.379 0-.654-1.806-2.88-1.806-1.615 0-2.25 1.148-1.113 1.707 1.54.766 5.468.51 5.468 3.502-.003 1.245-.766 2.173-1.955 2.658z"></path>
  </symbol>
  <symbol xmlns="http://www.w3.org/2000/svg" viewBox="0 0 15 15" id="Vector-4">
    <path d="M.265 7.232l3.456 1.29 1.338 4.303a.407.407 0 00.646.194l1.927-1.57a.575.575 0 01.7-.02l3.475 2.523c.24.174.579.043.639-.246L14.99 1.46a.407.407 0 00-.545-.463L.26 6.47a.408.408 0 00.004.762zm4.579.604l6.754-4.16c.122-.075.247.089.143.185L6.166 9.043a1.156 1.156 0 00-.358.692l-.19 1.407c-.025.188-.29.207-.341.025L4.547 8.6a.68.68 0 01.297-.765z"></path>
  </symbol>
  <symbol xmlns="http://www.w3.org/2000/svg" viewBox="0 0 268.77 75.68" id="logo">
    <path d="M18.28 14.68h101.75v3H18.28zm130.25 0h101.75v3H148.53zm-130.25 58h232v3h-232zm1.62-18.2a7 7 0 001-3.61 6.8 6.8 0 00-.63-3 5 5 0 00-1.68-2 8.11 8.11 0 00-2.19-1l-1.4-.36 1.33-.51a6.2 6.2 0 002.11-1.37 5.79 5.79 0 001.22-1.9 6.24 6.24 0 00.42-2.29 6 6 0 00-.8-3A5.3 5.3 0 0017 33.27a9.69 9.69 0 00-4.21-.75H1v2.64h2.56v20H1v2.64h10.84a12.68 12.68 0 005.34-.8 6.29 6.29 0 002.72-2.52zm-12-18.71h2.87a9.41 9.41 0 013.07.34 2.88 2.88 0 011.49 1.26 4 4 0 01.49 2 3.92 3.92 0 01-.52 2 3.25 3.25 0 01-1.58 1.35 7.86 7.86 0 01-3 .42h-2.8zm7.62 17a3.52 3.52 0 01-1.8 1.49 7.53 7.53 0 01-2.45.34H7.89v-8.54h3.3a7.25 7.25 0 013 .46A3.37 3.37 0 0115.74 48a4.55 4.55 0 01.51 2.22 4.76 4.76 0 01-.71 2.59zM141.22 18a5.44 5.44 0 00.75-2.79 5.27 5.27 0 00-.49-2.3 3.87 3.87 0 00-1.3-1.56 6.28 6.28 0 00-1.7-.75l-1-.32 1-.41a4.8 4.8 0 001.64-1.06 4.49 4.49 0 00.88-1.47 4.83 4.83 0 00.33-1.77 4.65 4.65 0 00-.62-2.36A4.11 4.11 0 00139 1.58a7.5 7.5 0 00-3.28-.58h-9.14v2h2v15.57h-2v2H135a9.82 9.82 0 004.13-.68 4.87 4.87 0 002.09-1.89zm-9.28-14.49h2.23a7.29 7.29 0 012.38.27 2.23 2.23 0 011.15 1 3.09 3.09 0 01.38 1.57 3 3 0 01-.4 1.56 2.51 2.51 0 01-1.22 1 6.09 6.09 0 01-2.29.32h-2.23zm5.91 13.2a2.73 2.73 0 01-1.39 1.16 5.83 5.83 0 01-1.9.26h-2.62v-6.65h2.56a5.62 5.62 0 012.29.36A2.61 2.61 0 01138 13a3.52 3.52 0 01.4 1.72 3.69 3.69 0 01-.56 1.99zM26.5 55.21h-2.62v2.64h19.05v-5.97h-2.32v2.76l-9.78.01.01-8.67h9.3V43.3h-9.3v-7.57h9.76l.01 2.34 2.32.01v-5.56H23.88v2.65h2.61l.01 20.04zm132.71 0l-2.62-.01v2.65h19.06v-5.98h-2.32l-.01 2.77h-9.78l.01-8.66h9.3v-2.69l-9.3.01v-7.57h9.77l.01 2.34h2.32v-5.55h-19.06v2.64h2.62v20.05zm68.33 0l-2.62-.01v2.65h19.05v-5.98h-2.32v2.77h-9.78l.01-8.66h9.3v-2.69l-9.3.01v-7.57h9.76l.01 2.34h2.32v-5.55h-19.05v2.64h2.61l.01 20.05zM61.68 56a7.53 7.53 0 001.57-2.46 7.64 7.64 0 00.47-2.68 7.48 7.48 0 00-.47-2.63 6.4 6.4 0 00-1.15-2 7.74 7.74 0 00-2-1.53 14.43 14.43 0 00-2.14-1l-3.62-1.28A10.29 10.29 0 0151 40.65a3 3 0 01-.61-3.9 4 4 0 011.56-1.38 7 7 0 013.77-.55 7.23 7.23 0 014.75 2l.16.15v2.46h2.21v-6.28c-.59-.32-2.64-1.2-7.38-1.2a13.68 13.68 0 00-2.75.31 7.86 7.86 0 00-3 1 7.67 7.67 0 00-.87.58 6.76 6.76 0 00-.67.58A6.38 6.38 0 0047 35.9v.1l-.06.14a7.1 7.1 0 00-.31.69 7.65 7.65 0 00-.47 2.68 7.49 7.49 0 00.46 2.63 6.41 6.41 0 001.15 2 7.74 7.74 0 002 1.53 14.58 14.58 0 002.15 1l3.6 1.33a10.31 10.31 0 013.36 1.7 3 3 0 01.61 3.9 3.08 3.08 0 01-1.37 1.19 8.47 8.47 0 01-3.81.82 8.25 8.25 0 01-5.72-1.92l-.15-.14-.08-2.55h-2.3v6.18a23.14 23.14 0 008.38 1.25 13.68 13.68 0 002.75-.31A10.36 10.36 0 0061 56.55a4.75 4.75 0 00.68-.55zm54.04 0a7.53 7.53 0 001.57-2.46 7.64 7.64 0 00.47-2.68 7.48 7.48 0 00-.47-2.63 6.4 6.4 0 00-1.15-2 7.74 7.74 0 00-2-1.53 14.43 14.43 0 00-2.14-1l-3.62-1.28a10.29 10.29 0 01-3.36-1.7 3 3 0 01-.61-3.9 4 4 0 011.56-1.38 7 7 0 013.77-.55 7.23 7.23 0 014.75 2l.16.15v2.46h2.21v-6.35c-.59-.32-2.64-1.2-7.38-1.2a13.68 13.68 0 00-2.75.31 7.86 7.86 0 00-3 1 7.67 7.67 0 00-.87.58 6.76 6.76 0 00-.67.58 6.38 6.38 0 00-1.13 1.5v.11l-.06.14a7.1 7.1 0 00-.31.69 7.65 7.65 0 00-.47 2.68 7.49 7.49 0 00.46 2.63 6.41 6.41 0 001.15 2 7.74 7.74 0 002 1.53 14.58 14.58 0 002.15 1l3.58 1.3a10.31 10.31 0 013.36 1.7 3 3 0 01.61 3.9 3.08 3.08 0 01-1.37 1.19 8.47 8.47 0 01-3.81.82 8.26 8.26 0 01-5.72-1.92l-.15-.14-.07-2.55h-2.31v6.18a23.14 23.14 0 008.38 1.25 13.68 13.68 0 002.75-.31 10.36 10.36 0 003.85-1.56 4.75 4.75 0 00.64-.56zM65.78 32.52v5.53h1.83l.01-2.89h6.54v20.05h-2.61v2.64h9.57v-2.64h-2.61V35.16h6.52l.01 2.89h1.88v-5.53H65.78zm66.66-.01v5.54h1.84v-2.9h6.54l.01 20.05h-2.61v2.65h9.57V55.2h-2.61V35.15h6.52v2.9h1.89v-5.54l-16.71.01-4.44-.01zm-9.99 22.69h-2.61v2.65h9.57V55.2h-2.61V35.16h2.61v-2.64h-9.57v2.64l2.61.01V55.2zm68.85 0h-2.61v2.65h9.56V55.2h-2.61l.01-20.04h2.6v-2.64h-9.56v2.64l2.6.01.01 20.03zm28.83-1.41a12.53 12.53 0 002-3.89 16.9 16.9 0 00.67-4.95 16.16 16.16 0 00-1.31-6.81 9.84 9.84 0 00-3.49-4.21 10.7 10.7 0 00-5.88-1.41h-10.84v2.64h2.61v20h-2.6v2.64h9.5a18.29 18.29 0 003.37-.42 10.88 10.88 0 003.19-1.06 9.63 9.63 0 002.78-2.53zm-5.61-.17a10.55 10.55 0 01-4.47.77h-1.85V35.73h2.89a6.51 6.51 0 013.8 1 6.93 6.93 0 012.23 3.22 14.29 14.29 0 01.88 5.15 13.48 13.48 0 01-.92 5.21 6.2 6.2 0 01-2.56 3.31zM260 32.52h-4.13l-7.36 22.68h-1.57v2.64h7.38v-2.63h-2.79l1.76-5.76h7.34l1.55 5.77h-2.65v2.64h9.24V55.2h-1.56zm-5.82 14.17l2.82-9.48 2.75 9.48z"></path>
    <path d="M17.28 13.68h101.75v3H17.28zm130.25 0h101.75v3H147.53zm-130.25 58h232v3h-232zm1.62-18.2a7 7 0 001-3.61 6.8 6.8 0 00-.63-3 5 5 0 00-1.68-2 8.11 8.11 0 00-2.19-1l-1.4-.36 1.33-.51a6.2 6.2 0 002.11-1.37 5.79 5.79 0 001.22-1.9 6.24 6.24 0 00.42-2.29 6 6 0 00-.8-3A5.3 5.3 0 0016 32.27a9.69 9.69 0 00-4.21-.75H0v2.64h2.56v20H0v2.64h10.84a12.68 12.68 0 005.34-.8 6.29 6.29 0 002.72-2.52zm-12-18.71h2.89a9.41 9.41 0 013.07.34 2.88 2.88 0 011.49 1.26 4 4 0 01.49 2 3.92 3.92 0 01-.52 2 3.25 3.25 0 01-1.58 1.35 7.86 7.86 0 01-3 .42H6.92zm7.62 17a3.52 3.52 0 01-1.8 1.49 7.53 7.53 0 01-2.45.34H6.89v-8.54h3.3a7.25 7.25 0 013 .46A3.37 3.37 0 0114.74 47a4.55 4.55 0 01.51 2.22 4.76 4.76 0 01-.71 2.59zM140.22 17a5.44 5.44 0 00.75-2.79 5.27 5.27 0 00-.49-2.3 3.87 3.87 0 00-1.3-1.56 6.28 6.28 0 00-1.7-.75l-1-.32 1-.41a4.8 4.8 0 001.64-1.06 4.49 4.49 0 00.88-1.47 4.83 4.83 0 00.33-1.77 4.65 4.65 0 00-.62-2.36A4.11 4.11 0 00138 .58a7.5 7.5 0 00-3.28-.58h-9.14v2h2v15.57h-2v2H134a9.82 9.82 0 004.13-.68 4.87 4.87 0 002.09-1.89zm-9.28-14.49h2.23a7.29 7.29 0 012.38.27 2.23 2.23 0 011.15 1 3.09 3.09 0 01.38 1.57 3 3 0 01-.4 1.56 2.51 2.51 0 01-1.22 1 6.09 6.09 0 01-2.29.32h-2.23zm5.91 13.2a2.73 2.73 0 01-1.39 1.16 5.83 5.83 0 01-1.9.26h-2.62v-6.65h2.56a5.62 5.62 0 012.29.36A2.61 2.61 0 01137 12a3.52 3.52 0 01.4 1.72 3.69 3.69 0 01-.56 1.99zM25.5 54.21h-2.62v2.64h19.05v-5.97h-2.32v2.76l-9.78.01.01-8.67h9.3V42.3h-9.3v-7.57h9.76l.01 2.34 2.32.01v-5.56H22.88v2.65h2.61l.01 20.04zm132.71 0l-2.62-.01v2.65h19.06v-5.98h-2.32l-.01 2.77h-9.78l.01-8.66h9.3v-2.69l-9.3.01v-7.57h9.77l.01 2.34h2.32v-5.55h-19.06v2.64h2.62v20.05zm68.33 0l-2.62-.01v2.65h19.05v-5.98h-2.32v2.77h-9.78l.01-8.66h9.3v-2.69l-9.3.01v-7.57h9.76l.01 2.34h2.32v-5.55h-19.05v2.64h2.61l.01 20.05zM60.68 55a7.53 7.53 0 001.57-2.46 7.64 7.64 0 00.47-2.68 7.48 7.48 0 00-.47-2.63 6.4 6.4 0 00-1.15-2 7.74 7.74 0 00-2-1.53 14.43 14.43 0 00-2.14-1l-3.62-1.28A10.29 10.29 0 0150 39.65a3 3 0 01-.61-3.9 4 4 0 011.56-1.38 7 7 0 013.77-.55 7.23 7.23 0 014.75 2l.16.15v2.46h2.21v-6.28c-.59-.32-2.64-1.2-7.38-1.2a13.68 13.68 0 00-2.75.31 7.86 7.86 0 00-3 1 7.67 7.67 0 00-.87.58 6.76 6.76 0 00-.67.58A6.38 6.38 0 0046 34.9v.1l-.06.14a7.1 7.1 0 00-.31.69 7.65 7.65 0 00-.47 2.68 7.49 7.49 0 00.46 2.63 6.41 6.41 0 001.15 2 7.74 7.74 0 002 1.53 14.58 14.58 0 002.15 1l3.6 1.33a10.31 10.31 0 013.36 1.7 3 3 0 01.61 3.9 3.08 3.08 0 01-1.37 1.19 8.47 8.47 0 01-3.81.82 8.25 8.25 0 01-5.72-1.92l-.15-.14-.08-2.55h-2.3v6.18a23.14 23.14 0 008.38 1.25 13.68 13.68 0 002.75-.31A10.36 10.36 0 0060 55.55a4.75 4.75 0 00.68-.55zm54.04 0a7.53 7.53 0 001.57-2.46 7.64 7.64 0 00.47-2.68 7.48 7.48 0 00-.47-2.63 6.4 6.4 0 00-1.15-2 7.74 7.74 0 00-2-1.53 14.43 14.43 0 00-2.14-1l-3.62-1.28a10.29 10.29 0 01-3.36-1.7 3 3 0 01-.61-3.9 4 4 0 011.56-1.38 7 7 0 013.77-.55 7.23 7.23 0 014.75 2l.16.15v2.46h2.21v-6.35c-.59-.32-2.64-1.2-7.38-1.2a13.68 13.68 0 00-2.75.31 7.86 7.86 0 00-3 1 7.67 7.67 0 00-.87.58 6.76 6.76 0 00-.67.58 6.38 6.38 0 00-1.13 1.5v.11l-.06.14a7.1 7.1 0 00-.31.69 7.65 7.65 0 00-.47 2.68 7.49 7.49 0 00.46 2.63 6.41 6.41 0 001.15 2 7.74 7.74 0 002 1.53 14.58 14.58 0 002.15 1l3.58 1.3a10.31 10.31 0 013.36 1.7 3 3 0 01.61 3.9 3.08 3.08 0 01-1.37 1.19 8.47 8.47 0 01-3.81.82 8.26 8.26 0 01-5.72-1.92l-.15-.14-.07-2.55H99.1v6.18a23.14 23.14 0 008.38 1.25 13.68 13.68 0 002.75-.31 10.36 10.36 0 003.85-1.56 4.75 4.75 0 00.64-.56zM64.78 31.52v5.53h1.83l.01-2.89h6.54v20.05h-2.61v2.64h9.57v-2.64h-2.61V34.16h6.52l.01 2.89h1.88v-5.53H64.78zm66.66-.01v5.54h1.84v-2.9h6.54l.01 20.05h-2.61v2.65h9.57V54.2h-2.61V34.15h6.52v2.9h1.89v-5.54l-16.71.01-4.44-.01zm-9.99 22.69h-2.61v2.65h9.57V54.2h-2.61V34.16h2.61v-2.64h-9.57v2.64l2.61.01V54.2zm68.85 0h-2.61v2.65h9.56V54.2h-2.61l.01-20.04h2.6v-2.64h-9.56v2.64l2.6.01.01 20.03zm28.83-1.41a12.53 12.53 0 002-3.89 16.9 16.9 0 00.67-4.95 16.16 16.16 0 00-1.31-6.81 9.84 9.84 0 00-3.49-4.21 10.7 10.7 0 00-5.88-1.41h-10.84v2.64h2.61v20h-2.6v2.64h9.5a18.29 18.29 0 003.37-.42 10.88 10.88 0 003.19-1.06 9.63 9.63 0 002.78-2.53zm-5.61-.17a10.55 10.55 0 01-4.47.77h-1.85V34.73h2.89a6.51 6.51 0 013.8 1 6.93 6.93 0 012.23 3.22 14.29 14.29 0 01.88 5.15 13.48 13.48 0 01-.92 5.21 6.2 6.2 0 01-2.56 3.31zM259 31.52h-4.13l-7.36 22.68h-1.57v2.64h7.38v-2.63h-2.79l1.76-5.76h7.34l1.55 5.77h-2.65v2.64h9.24V54.2h-1.56zm-5.82 14.17l2.82-9.48 2.75 9.48z"></path>
  </symbol>
  <symbol xmlns="http://www.w3.org/2000/svg" viewBox="0 0 197.64 71.07" id="logo-best-site">
    <path d="M134 1.52V68h-5.9V1.52zm0 69.55H1.82v-1.75H134zm-26.11-65.3h-38.6V4h38.59zM77.16 20.78c.08 4.76 3.12 6.72 6.64 6.72a12.73 12.73 0 005.36-1l.6 2.52a15.69 15.69 0 01-6.44 1.2c-6 0-9.53-3.92-9.53-9.77S77.24 10 82.88 10c6.32 0 8 5.56 8 9.12a13.45 13.45 0 01-.12 1.64zm10.33-2.52c0-2.24-.92-5.72-4.88-5.72-3.56 0-5.12 3.28-5.4 5.72zm7.29 7.97a9.23 9.23 0 004.64 1.4c2.56 0 3.76-1.28 3.76-2.88s-1-2.6-3.6-3.56c-3.48-1.25-5.12-3.19-5.12-5.49 0-3.12 2.52-5.68 6.68-5.68a9.67 9.67 0 014.76 1.2l-.9 2.56a7.54 7.54 0 00-4-1.12c-2.08 0-3.24 1.2-3.24 2.64 0 1.6 1.16 2.32 3.68 3.28 3.36 1.28 5.08 3 5.08 5.84 0 3.4-2.64 5.8-7.24 5.8a11.05 11.05 0 01-5.44-1.32zm20.58-21.34v5.56h5v2.68h-5v10.45c0 2.4.68 3.76 2.64 3.76a7.88 7.88 0 002-.24l.16 2.64a8.62 8.62 0 01-3.12.48 4.89 4.89 0 01-3.8-1.48c-1-1-1.36-2.76-1.36-5v-10.6h-3v-2.68h3V5.81zM85.34 42.77a2.18 2.18 0 01-4.36 0 2.15 2.15 0 012.2-2.2 2.09 2.09 0 012.16 2.2zm-3.92 24.81V48.21h3.52v19.37zM95 42.65v5.56h5v2.68h-5v10.45c0 2.4.68 3.76 2.64 3.76a7.9 7.9 0 002-.24l.16 2.64a8.62 8.62 0 01-3.12.48A4.89 4.89 0 0193 66.5c-1-1-1.36-2.76-1.36-5V50.89h-3v-2.68h3v-4.64zm10.77 15.89c.08 4.76 3.12 6.72 6.64 6.72a12.73 12.73 0 005.36-1l.6 2.52a15.69 15.69 0 01-6.44 1.2c-6 0-9.53-3.92-9.53-9.77s3.44-10.44 9.09-10.44c6.32 0 8 5.56 8 9.12a13.45 13.45 0 01-.12 1.64zM116.09 56c0-2.24-.92-5.72-4.88-5.72-3.56 0-5.12 3.28-5.4 5.72zm41.71-16.8v23.42c0 1.72 0 3.68.16 5h-3.16l-.16-3.36h-.08a7.17 7.17 0 01-6.6 3.8c-4.68 0-8.29-4-8.29-9.85 0-6.44 4-10.41 8.68-10.41a6.48 6.48 0 015.84 3h.08V39.2zm-3.52 16.93a6.19 6.19 0 00-.16-1.48 5.18 5.18 0 00-5.12-4.08c-3.64 0-5.8 3.2-5.8 7.49 0 3.92 1.92 7.16 5.72 7.16a5.29 5.29 0 005.16-4.2 6.09 6.09 0 00.16-1.52zm11.33 2.44c.08 4.76 3.12 6.72 6.64 6.72a12.73 12.73 0 005.36-1l.6 2.52a15.69 15.69 0 01-6.44 1.2c-6 0-9.53-3.92-9.53-9.77s3.44-10.44 9.09-10.44c6.32 0 8 5.56 8 9.12a13.45 13.45 0 01-.12 1.64zm10.33-2.52c0-2.24-.92-5.72-4.88-5.72-3.56 0-5.12 3.28-5.4 5.72zm18.5 11.57l-.28-2.44H194a7.21 7.21 0 01-5.92 2.88 5.52 5.52 0 01-5.92-5.56c0-4.68 4.16-7.24 11.65-7.2v-.4c0-1.6-.44-4.48-4.4-4.48a9.65 9.65 0 00-5 1.44l-.8-2.32a12 12 0 016.39-1.73c5.92 0 7.36 4 7.36 7.92V63a27.17 27.17 0 00.32 4.64zm-.52-9.89c-3.84-.08-8.2.6-8.2 4.36a3.12 3.12 0 003.28 3.37 4.82 4.82 0 004.68-3.24 3.71 3.71 0 00.2-1.12zM73.42 43.79a18.23 18.23 0 00-1.47-6.14 16.22 16.22 0 00-3.77-5.3A17 17 0 0062.71 29a32.54 32.54 0 00-5.54-1.51c-1.79-.35-3.49-.61-5.11-.89a36.22 36.22 0 01-4.55-1l-.51-.24-.26-.09-.19-.08-.41-.19-.38-.2a7.47 7.47 0 01-1.44-1 9 9 0 01-3-6.63 10.37 10.37 0 013.13-7.09 11.79 11.79 0 011.58-1.33c.28-.21.58-.38.87-.56s.59-.33.93-.48a20 20 0 014.32-1.36c3-.56 6.06-.4 8.3 1.23A7.28 7.28 0 0162 9.07a6.86 6.86 0 011.05 1.83 6 6 0 01-.42 5.22 9.87 9.87 0 01-.67 1 10.74 10.74 0 01-1.73 1.7 21.48 21.48 0 01-4.38 2.57 19.54 19.54 0 005-1.67 11.67 11.67 0 002.25-1.53 9.71 9.71 0 001-1 7.9 7.9 0 00.83-1.2 8.26 8.26 0 00.84-5.81 9.31 9.31 0 00-1.11-2.81A10.61 10.61 0 0062.74 5a11.8 11.8 0 00-5.35-2.81 18.16 18.16 0 00-5.81-.38A22.89 22.89 0 0046 3c-.46.16-.95.37-1.41.57s-.92.44-1.36.71A15.54 15.54 0 0040.71 6a17.7 17.7 0 00-2.14 2.21 17.47 17.47 0 00-1.72 2.6c-.18.35-.34.71-.5 1.07A117.29 117.29 0 0038.42 0 114.24 114.24 0 0133 17.46a96.62 96.62 0 01-8.25 16.09A84.91 84.91 0 0113.6 47.48 71.87 71.87 0 017 53.33c-1.15.9-2.32 1.76-3.51 2.55-.6.4-1.2.78-1.8 1.14-.3.17-.6.36-.9.52l-.44.24-.21.11L0 58l3.65 6.62.35-.24.28-.19.53-.37c.35-.24.68-.49 1-.74q1-.75 1.93-1.53c1.26-1 2.45-2.12 3.61-3.23a78 78 0 006.46-7A89.64 89.64 0 0028 35.43a99.45 99.45 0 006.76-17.35c.11-.39.2-.79.31-1.18a15.2 15.2 0 004.61 11.8 13.43 13.43 0 002.68 2l.75.41c.26.13.52.24.79.35l.4.17.35.13.69.25a42.83 42.83 0 005.43 1.38c1.74.34 3.43.6 5 .92.79.16 1.54.34 2.28.53.36.1.73.2 1.08.32a10.36 10.36 0 011 .36 9.39 9.39 0 015.4 4.94 12.85 12.85 0 01.76 7.9 17.78 17.78 0 01-3.67 7.71 18.66 18.66 0 01-3.18 3 18.24 18.24 0 01-3.84 2.27 21.83 21.83 0 01-8.88 1.85 22.75 22.75 0 01-4.62-.57 21.12 21.12 0 01-2.27-.63c-.38-.11-.74-.28-1.11-.42s-.75-.27-1.1-.46A21.77 21.77 0 0135.5 60c-.34-.21-.7-.4-1-.63l-1-.7-.5-.35-.46-.32-.94-.78-.88-.86a10.3 10.3 0 01-.86-.88A33.39 33.39 0 0124.38 47a28.6 28.6 0 003.9 9.69 11.69 11.69 0 00.76 1.1l.81 1.08.9 1 .45.51c.16.16.32.31.49.47l1 .94c.34.3.7.57 1.06.86A25 25 0 0036 64.29 25.64 25.64 0 0046.43 68a25.06 25.06 0 005.68 0 24.47 24.47 0 005.58-1.29 24.14 24.14 0 009.67-6.36 23.44 23.44 0 005.54-10.47 20.5 20.5 0 00.52-6.09z"></path>
  </symbol>
  <symbol xmlns="http://www.w3.org/2000/svg" viewBox="0 0 38 40" id="input-file">
    <path d="M37.306 14.568a1.667 1.667 0 00-2.357.006L14.913 34.718a6.668 6.668 0 01-9.425-9.431L26.117 4.55a4.167 4.167 0 015.888 5.896L14.917 27.535c-.002 0-.002.002-.004.003a1.666 1.666 0 01-2.352-2.36l8.248-8.25a1.667 1.667 0 00-2.357-2.357l-8.249 8.25a5 5 0 107.071 7.071l.006-.007 17.082-17.082A7.5 7.5 0 0023.757 2.196L3.128 22.933c-3.901 3.9-3.901 10.233.003 14.139 3.907 3.904 10.239 3.904 14.143 0l20.038-20.147a1.667 1.667 0 00-.006-2.357z"></path>
  </symbol>
</svg>