<svg width="0" height="0" class="hidden">
  <symbol xmlns="http://www.w3.org/2000/svg" viewBox="0 0 15 15" id="Vector">
    <path d="M7.5 0C3.358 0 0 3.109 0 6.944c0 2.185 1.09 4.134 2.795 5.408V15l2.553-1.402a8.05 8.05 0 002.152.291c4.142 0 7.5-3.109 7.5-6.944S11.642 0 7.5 0zm.745 9.352l-1.91-2.038L2.61 9.352 6.71 5l1.956 2.037L12.345 5l-4.1 4.352z"></path>
  </symbol>
  <symbol xmlns="http://www.w3.org/2000/svg" viewBox="0 0 15 15" id="Vector-1">
    <path d="M15 7.5A7.5 7.5 0 007.5 0 7.5 7.5 0 000 7.5 7.5 7.5 0 007.5 15c.044 0 .088 0 .132-.003V9.161H6.02V7.283h1.61V5.9c0-1.602.98-2.475 2.409-2.475.686 0 1.275.05 1.444.073v1.676H10.5c-.776 0-.929.369-.929.911V7.28h1.86l-.242 1.878H9.57v5.552A7.502 7.502 0 0015 7.5z"></path>
  </symbol>
  <symbol xmlns="http://www.w3.org/2000/svg" viewBox="0 0 9 9" id="Vector-2">
    <path d="M4.5.75a3.75 3.75 0 100 7.5 3.75 3.75 0 000-7.5zm0 6.094A2.347 2.347 0 012.156 4.5 2.346 2.346 0 014.5 2.156 2.346 2.346 0 016.844 4.5 2.347 2.347 0 014.5 6.844z"></path>
  </symbol>
  <symbol xmlns="http://www.w3.org/2000/svg" viewBox="0 0 15 15" id="Vector-3">
    <path d="M14.568 9.091c1.086-4.88-3.19-9.315-8.212-8.464C3.63-1.065 0 .847 0 4.091c0 .754.208 1.46.57 2.07-1.01 4.892 3.302 9.262 8.32 8.353 3.546 1.876 7.466-1.865 5.678-5.423zm-4.774 2.944c-1.317.542-3.485.545-4.797-.142-1.87-.997-2.203-3.243-.59-3.243 1.217 0 .832 1.418 2.06 1.996.564.261 1.776.288 2.48-.187.696-.466.632-1.198.254-1.548-1.002-.925-3.87-.558-5.18-2.177-.57-.703-.677-1.942.023-2.84 1.22-1.57 4.8-1.666 6.34-.48 1.421 1.1 1.037 2.56-.11 2.56-1.379 0-.654-1.806-2.88-1.806-1.615 0-2.25 1.148-1.113 1.707 1.54.766 5.468.51 5.468 3.502-.003 1.245-.766 2.173-1.955 2.658z"></path>
  </symbol>
  <symbol xmlns="http://www.w3.org/2000/svg" viewBox="0 0 15 15" id="Vector-4">
    <path d="M.265 7.232l3.456 1.29 1.338 4.303a.407.407 0 00.646.194l1.927-1.57a.575.575 0 01.7-.02l3.475 2.523c.24.174.579.043.639-.246L14.99 1.46a.407.407 0 00-.545-.463L.26 6.47a.408.408 0 00.004.762zm4.579.604l6.754-4.16c.122-.075.247.089.143.185L6.166 9.043a1.156 1.156 0 00-.358.692l-.19 1.407c-.025.188-.29.207-.341.025L4.547 8.6a.68.68 0 01.297-.765z"></path>
  </symbol>
</svg>