<svg width="0" height="0" class="hidden">
  <symbol xmlns="http://www.w3.org/2000/svg" viewBox="0 0 15 15" id="Vector">
    <path d="M7.5 0C3.358 0 0 3.109 0 6.944c0 2.185 1.09 4.134 2.795 5.408V15l2.553-1.402a8.05 8.05 0 002.152.291c4.142 0 7.5-3.109 7.5-6.944S11.642 0 7.5 0zm.745 9.352l-1.91-2.038L2.61 9.352 6.71 5l1.956 2.037L12.345 5l-4.1 4.352z"></path>
  </symbol>
  <symbol xmlns="http://www.w3.org/2000/svg" viewBox="0 0 15 15" id="Vector-1">
    <path d="M15 7.5A7.5 7.5 0 007.5 0 7.5 7.5 0 000 7.5 7.5 7.5 0 007.5 15c.044 0 .088 0 .132-.003V9.161H6.02V7.283h1.61V5.9c0-1.602.98-2.475 2.409-2.475.686 0 1.275.05 1.444.073v1.676H10.5c-.776 0-.929.369-.929.911V7.28h1.86l-.242 1.878H9.57v5.552A7.502 7.502 0 0015 7.5z"></path>
  </symbol>


  
  <symbol xmlns="http://www.w3.org/2000/svg" viewBox="0 0 15 15" id="instagram">
    <path d="M10.313 0H4.686A4.688 4.688 0 000 4.688v5.625A4.69 4.69 0 004.688 15h5.625A4.69 4.69 0 0015 10.312V4.689C15 2.099 12.9 0 10.312 0zm3.28 10.313a3.285 3.285 0 01-3.28 3.28H4.686a3.285 3.285 0 01-3.28-3.28V4.686a3.285 3.285 0 013.28-3.28h5.625a3.285 3.285 0 013.282 3.28v5.625z"></path>
    <path d="M7.5 3.75a3.75 3.75 0 100 7.5 3.75 3.75 0 000-7.5zm0 6.094A2.347 2.347 0 015.156 7.5 2.346 2.346 0 017.5 5.156 2.346 2.346 0 019.844 7.5 2.347 2.347 0 017.5 9.844zm4.031-5.876a.5.5 0 100-.999.5.5 0 000 1z"></path>
  </symbol>
  


  <symbol xmlns="http://www.w3.org/2000/svg" viewBox="0 0 9 9" id="Vector-2">
    <path d="M4.5.75a3.75 3.75 0 100 7.5 3.75 3.75 0 000-7.5zm0 6.094A2.347 2.347 0 012.156 4.5 2.346 2.346 0 014.5 2.156 2.346 2.346 0 016.844 4.5 2.347 2.347 0 014.5 6.844z"></path>
  </symbol>


  <symbol xmlns="http://www.w3.org/2000/svg" viewBox="0 0 15 15" id="Vector-3">
    <path d="M14.568 9.091c1.086-4.88-3.19-9.315-8.212-8.464C3.63-1.065 0 .847 0 4.091c0 .754.208 1.46.57 2.07-1.01 4.892 3.302 9.262 8.32 8.353 3.546 1.876 7.466-1.865 5.678-5.423zm-4.774 2.944c-1.317.542-3.485.545-4.797-.142-1.87-.997-2.203-3.243-.59-3.243 1.217 0 .832 1.418 2.06 1.996.564.261 1.776.288 2.48-.187.696-.466.632-1.198.254-1.548-1.002-.925-3.87-.558-5.18-2.177-.57-.703-.677-1.942.023-2.84 1.22-1.57 4.8-1.666 6.34-.48 1.421 1.1 1.037 2.56-.11 2.56-1.379 0-.654-1.806-2.88-1.806-1.615 0-2.25 1.148-1.113 1.707 1.54.766 5.468.51 5.468 3.502-.003 1.245-.766 2.173-1.955 2.658z"></path>
  </symbol>
  <symbol xmlns="http://www.w3.org/2000/svg" viewBox="0 0 15 15" id="Vector-4">
    <path d="M.265 7.232l3.456 1.29 1.338 4.303a.407.407 0 00.646.194l1.927-1.57a.575.575 0 01.7-.02l3.475 2.523c.24.174.579.043.639-.246L14.99 1.46a.407.407 0 00-.545-.463L.26 6.47a.408.408 0 00.004.762zm4.579.604l6.754-4.16c.122-.075.247.089.143.185L6.166 9.043a1.156 1.156 0 00-.358.692l-.19 1.407c-.025.188-.29.207-.341.025L4.547 8.6a.68.68 0 01.297-.765z"></path>
  </symbol>
  <symbol xmlns="http://www.w3.org/2000/svg" viewBox="0 0 197.64 71.07" id="logo-best-site">
    <path d="M134 1.52V68h-5.9V1.52zm0 69.55H1.82v-1.75H134zm-26.11-65.3h-38.6V4h38.59zM77.16 20.78c.08 4.76 3.12 6.72 6.64 6.72a12.73 12.73 0 005.36-1l.6 2.52a15.69 15.69 0 01-6.44 1.2c-6 0-9.53-3.92-9.53-9.77S77.24 10 82.88 10c6.32 0 8 5.56 8 9.12a13.45 13.45 0 01-.12 1.64zm10.33-2.52c0-2.24-.92-5.72-4.88-5.72-3.56 0-5.12 3.28-5.4 5.72zm7.29 7.97a9.23 9.23 0 004.64 1.4c2.56 0 3.76-1.28 3.76-2.88s-1-2.6-3.6-3.56c-3.48-1.25-5.12-3.19-5.12-5.49 0-3.12 2.52-5.68 6.68-5.68a9.67 9.67 0 014.76 1.2l-.9 2.56a7.54 7.54 0 00-4-1.12c-2.08 0-3.24 1.2-3.24 2.64 0 1.6 1.16 2.32 3.68 3.28 3.36 1.28 5.08 3 5.08 5.84 0 3.4-2.64 5.8-7.24 5.8a11.05 11.05 0 01-5.44-1.32zm20.58-21.34v5.56h5v2.68h-5v10.45c0 2.4.68 3.76 2.64 3.76a7.88 7.88 0 002-.24l.16 2.64a8.62 8.62 0 01-3.12.48 4.89 4.89 0 01-3.8-1.48c-1-1-1.36-2.76-1.36-5v-10.6h-3v-2.68h3V5.81zM85.34 42.77a2.18 2.18 0 01-4.36 0 2.15 2.15 0 012.2-2.2 2.09 2.09 0 012.16 2.2zm-3.92 24.81V48.21h3.52v19.37zM95 42.65v5.56h5v2.68h-5v10.45c0 2.4.68 3.76 2.64 3.76a7.9 7.9 0 002-.24l.16 2.64a8.62 8.62 0 01-3.12.48A4.89 4.89 0 0193 66.5c-1-1-1.36-2.76-1.36-5V50.89h-3v-2.68h3v-4.64zm10.77 15.89c.08 4.76 3.12 6.72 6.64 6.72a12.73 12.73 0 005.36-1l.6 2.52a15.69 15.69 0 01-6.44 1.2c-6 0-9.53-3.92-9.53-9.77s3.44-10.44 9.09-10.44c6.32 0 8 5.56 8 9.12a13.45 13.45 0 01-.12 1.64zM116.09 56c0-2.24-.92-5.72-4.88-5.72-3.56 0-5.12 3.28-5.4 5.72zm41.71-16.8v23.42c0 1.72 0 3.68.16 5h-3.16l-.16-3.36h-.08a7.17 7.17 0 01-6.6 3.8c-4.68 0-8.29-4-8.29-9.85 0-6.44 4-10.41 8.68-10.41a6.48 6.48 0 015.84 3h.08V39.2zm-3.52 16.93a6.19 6.19 0 00-.16-1.48 5.18 5.18 0 00-5.12-4.08c-3.64 0-5.8 3.2-5.8 7.49 0 3.92 1.92 7.16 5.72 7.16a5.29 5.29 0 005.16-4.2 6.09 6.09 0 00.16-1.52zm11.33 2.44c.08 4.76 3.12 6.72 6.64 6.72a12.73 12.73 0 005.36-1l.6 2.52a15.69 15.69 0 01-6.44 1.2c-6 0-9.53-3.92-9.53-9.77s3.44-10.44 9.09-10.44c6.32 0 8 5.56 8 9.12a13.45 13.45 0 01-.12 1.64zm10.33-2.52c0-2.24-.92-5.72-4.88-5.72-3.56 0-5.12 3.28-5.4 5.72zm18.5 11.57l-.28-2.44H194a7.21 7.21 0 01-5.92 2.88 5.52 5.52 0 01-5.92-5.56c0-4.68 4.16-7.24 11.65-7.2v-.4c0-1.6-.44-4.48-4.4-4.48a9.65 9.65 0 00-5 1.44l-.8-2.32a12 12 0 016.39-1.73c5.92 0 7.36 4 7.36 7.92V63a27.17 27.17 0 00.32 4.64zm-.52-9.89c-3.84-.08-8.2.6-8.2 4.36a3.12 3.12 0 003.28 3.37 4.82 4.82 0 004.68-3.24 3.71 3.71 0 00.2-1.12zM73.42 43.79a18.23 18.23 0 00-1.47-6.14 16.22 16.22 0 00-3.77-5.3A17 17 0 0062.71 29a32.54 32.54 0 00-5.54-1.51c-1.79-.35-3.49-.61-5.11-.89a36.22 36.22 0 01-4.55-1l-.51-.24-.26-.09-.19-.08-.41-.19-.38-.2a7.47 7.47 0 01-1.44-1 9 9 0 01-3-6.63 10.37 10.37 0 013.13-7.09 11.79 11.79 0 011.58-1.33c.28-.21.58-.38.87-.56s.59-.33.93-.48a20 20 0 014.32-1.36c3-.56 6.06-.4 8.3 1.23A7.28 7.28 0 0162 9.07a6.86 6.86 0 011.05 1.83 6 6 0 01-.42 5.22 9.87 9.87 0 01-.67 1 10.74 10.74 0 01-1.73 1.7 21.48 21.48 0 01-4.38 2.57 19.54 19.54 0 005-1.67 11.67 11.67 0 002.25-1.53 9.71 9.71 0 001-1 7.9 7.9 0 00.83-1.2 8.26 8.26 0 00.84-5.81 9.31 9.31 0 00-1.11-2.81A10.61 10.61 0 0062.74 5a11.8 11.8 0 00-5.35-2.81 18.16 18.16 0 00-5.81-.38A22.89 22.89 0 0046 3c-.46.16-.95.37-1.41.57s-.92.44-1.36.71A15.54 15.54 0 0040.71 6a17.7 17.7 0 00-2.14 2.21 17.47 17.47 0 00-1.72 2.6c-.18.35-.34.71-.5 1.07A117.29 117.29 0 0038.42 0 114.24 114.24 0 0133 17.46a96.62 96.62 0 01-8.25 16.09A84.91 84.91 0 0113.6 47.48 71.87 71.87 0 017 53.33c-1.15.9-2.32 1.76-3.51 2.55-.6.4-1.2.78-1.8 1.14-.3.17-.6.36-.9.52l-.44.24-.21.11L0 58l3.65 6.62.35-.24.28-.19.53-.37c.35-.24.68-.49 1-.74q1-.75 1.93-1.53c1.26-1 2.45-2.12 3.61-3.23a78 78 0 006.46-7A89.64 89.64 0 0028 35.43a99.45 99.45 0 006.76-17.35c.11-.39.2-.79.31-1.18a15.2 15.2 0 004.61 11.8 13.43 13.43 0 002.68 2l.75.41c.26.13.52.24.79.35l.4.17.35.13.69.25a42.83 42.83 0 005.43 1.38c1.74.34 3.43.6 5 .92.79.16 1.54.34 2.28.53.36.1.73.2 1.08.32a10.36 10.36 0 011 .36 9.39 9.39 0 015.4 4.94 12.85 12.85 0 01.76 7.9 17.78 17.78 0 01-3.67 7.71 18.66 18.66 0 01-3.18 3 18.24 18.24 0 01-3.84 2.27 21.83 21.83 0 01-8.88 1.85 22.75 22.75 0 01-4.62-.57 21.12 21.12 0 01-2.27-.63c-.38-.11-.74-.28-1.11-.42s-.75-.27-1.1-.46A21.77 21.77 0 0135.5 60c-.34-.21-.7-.4-1-.63l-1-.7-.5-.35-.46-.32-.94-.78-.88-.86a10.3 10.3 0 01-.86-.88A33.39 33.39 0 0124.38 47a28.6 28.6 0 003.9 9.69 11.69 11.69 0 00.76 1.1l.81 1.08.9 1 .45.51c.16.16.32.31.49.47l1 .94c.34.3.7.57 1.06.86A25 25 0 0036 64.29 25.64 25.64 0 0046.43 68a25.06 25.06 0 005.68 0 24.47 24.47 0 005.58-1.29 24.14 24.14 0 009.67-6.36 23.44 23.44 0 005.54-10.47 20.5 20.5 0 00.52-6.09z"></path>
  </symbol>
  <symbol xmlns="http://www.w3.org/2000/svg" viewBox="0 0 38 40" id="input-file">
    <path d="M37.306 14.568a1.667 1.667 0 00-2.357.006L14.913 34.718a6.668 6.668 0 01-9.425-9.431L26.117 4.55a4.167 4.167 0 015.888 5.896L14.917 27.535c-.002 0-.002.002-.004.003a1.666 1.666 0 01-2.352-2.36l8.248-8.25a1.667 1.667 0 00-2.357-2.357l-8.249 8.25a5 5 0 107.071 7.071l.006-.007 17.082-17.082A7.5 7.5 0 0023.757 2.196L3.128 22.933c-3.901 3.9-3.901 10.233.003 14.139 3.907 3.904 10.239 3.904 14.143 0l20.038-20.147a1.667 1.667 0 00-.006-2.357z"></path>
  </symbol>
  <symbol xmlns="http://www.w3.org/2000/svg" viewBox="0 0 202 202" id="img-card-cms">
    <g clip-path="url(#clip0)">
      <path d="M197.42 37.242h-80.27c-1.928-8.919-10.124-15.91-19.525-15.91-9.642 0-17.596 6.75-19.525 15.91H4.34A4.32 4.32 0 000 41.582a4.32 4.32 0 004.339 4.338h73.52c1.929 8.919 10.124 15.91 19.525 15.91 9.642 0 17.597-6.75 19.525-15.91h80.511a4.32 4.32 0 004.339-4.339 4.32 4.32 0 00-4.339-4.339zm-99.795 16.15c-6.267 0-11.57-5.061-11.57-11.57 0-6.508 5.062-11.57 11.57-11.57 6.268 0 11.571 5.062 11.571 11.57 0 6.267-5.062 11.57-11.57 11.57zm100.036 43.39H75.931c-1.929-8.92-10.124-15.91-19.525-15.91-9.642 0-17.597 6.75-19.525 15.91H4.339A4.321 4.321 0 000 101.12a4.32 4.32 0 004.339 4.338H36.88c1.928 8.919 10.124 15.91 19.525 15.91 9.642 0 17.596-6.75 19.525-15.91h121.73a4.32 4.32 0 004.339-4.338 4.32 4.32 0 00-4.339-4.34zM56.406 112.69c-6.268 0-11.57-5.062-11.57-11.57 0-6.268 5.302-11.57 11.57-11.57 6.267 0 11.57 5.061 11.57 11.57 0 6.267-5.062 11.57-11.57 11.57zm141.014 43.39h-37.845c-1.928-8.919-10.124-15.909-19.525-15.909-9.642 0-17.597 6.749-19.525 15.909H4.339A4.32 4.32 0 000 160.419a4.321 4.321 0 004.339 4.339h115.945c1.928 8.919 10.124 15.909 19.525 15.909 9.642 0 17.597-6.749 19.525-15.909h38.086a4.321 4.321 0 004.339-4.339 4.32 4.32 0 00-4.339-4.339zm-57.611 16.15c-6.267 0-11.57-5.062-11.57-11.57s5.303-11.571 11.57-11.571 11.57 5.063 11.57 11.571-5.062 11.57-11.57 11.57z"></path>
    </g>
    <defs>
      <clipPath id="clip0">
        <path d="M0 0h202v202H0z"></path>
      </clipPath>
    </defs>
  </symbol>
  <symbol xmlns="http://www.w3.org/2000/svg" viewBox="0 0 202 202" id="img-card-design">
    <path d="M186.219 9.469H15.781a9.48 9.48 0 00-9.469 9.469v164.124a9.48 9.48 0 009.47 9.469h170.437a9.48 9.48 0 009.469-9.469V18.937a9.48 9.48 0 00-9.469-9.468zM15.781 15.78H186.22a3.16 3.16 0 013.156 3.156V34.72H12.625V18.937a3.16 3.16 0 013.156-3.156zM186.22 186.22H15.781a3.16 3.16 0 01-3.156-3.157V41.032h176.75v142.03a3.162 3.162 0 01-3.156 3.157z"></path>
    <path d="M47.344 28.406a3.156 3.156 0 100-6.312 3.156 3.156 0 000 6.312zm-12.625 0a3.156 3.156 0 100-6.312 3.156 3.156 0 000 6.312zm-12.625 0a3.156 3.156 0 100-6.312 3.156 3.156 0 000 6.312zm15.781 119.938a12.623 12.623 0 00-9.515 20.922 12.625 12.625 0 0014.644 3.238 12.625 12.625 0 00-5.129-24.16zm4.749 16.783l-.01.012-.036.039a6.314 6.314 0 01-7.28 1.554 6.314 6.314 0 01-2.126-1.554l-.034-.039-.012-.013a6.315 6.315 0 011.33-9.465 6.314 6.314 0 019.168 2.699 6.31 6.31 0 01-1 6.766v.001zM101 148.344a12.623 12.623 0 00-9.514 20.922 12.625 12.625 0 0014.644 3.238 12.617 12.617 0 004.385-3.238 12.623 12.623 0 00-2.681-18.912 12.624 12.624 0 00-6.834-2.01zm4.749 16.783l-.011.012-.035.039a6.31 6.31 0 01-9.406 0l-.034-.039-.012-.013a6.315 6.315 0 011.33-9.465 6.314 6.314 0 019.168 2.699 6.314 6.314 0 01-1 6.766v.001zm-36.311-16.783a12.623 12.623 0 00-9.515 20.922 12.625 12.625 0 0014.644 3.238 12.625 12.625 0 00-5.13-24.16zm4.748 16.783l-.01.012-.035.039a6.314 6.314 0 01-7.28 1.554 6.314 6.314 0 01-2.127-1.554c-.01-.013-.023-.025-.034-.039l-.011-.013a6.315 6.315 0 011.329-9.465 6.314 6.314 0 019.168 2.699 6.31 6.31 0 01-1 6.766v.001zm58.377-16.783a12.624 12.624 0 109.373 21.08c.048-.053.096-.105.141-.158a12.625 12.625 0 00-9.514-20.922zm4.748 16.783l-.01.012-.035.039a6.32 6.32 0 01-4.703 2.104 6.323 6.323 0 01-4.704-2.104l-.034-.039-.011-.013a6.313 6.313 0 119.497 0v.001zm26.814-16.783a12.624 12.624 0 10.001 25.249 12.624 12.624 0 00-.001-25.249zm4.749 16.783l-.011.012-.035.039a6.31 6.31 0 01-9.406 0l-.035-.039-.011-.013a6.314 6.314 0 1110.498-6.766 6.314 6.314 0 01-1 6.766v.001zm4.72-111.471H28.406a3.157 3.157 0 00-3.156 3.157v75.749a3.155 3.155 0 003.156 3.157h145.188a3.157 3.157 0 003.156-3.157v-75.75a3.16 3.16 0 00-3.156-3.156zm-3.156 75.75H31.563V59.969h138.875v69.437z"></path>
    <path d="M41.031 91.531h6.313a3.157 3.157 0 000-6.312H41.03a3.157 3.157 0 000 6.312zm63.125 25.25h56.813a3.158 3.158 0 002.525-5.05l-18.938-25.25a3.156 3.156 0 00-5.05 0l-5.6 7.467-8.106-13.51a3.154 3.154 0 00-4.261-1.122 3.156 3.156 0 00-1.152 1.123L101.45 112a3.151 3.151 0 00-.04 3.179 3.158 3.158 0 002.746 1.601zm37.875-23.146l12.625 16.834h-10.838l-6.403-10.676 4.616-6.158zm-18.937-5.438l13.363 22.272h-26.726l13.363-22.272zm15.781-9.291a3.156 3.156 0 100-6.312 3.156 3.156 0 000 6.312zm-66.281 31.563H59.969a3.156 3.156 0 100 6.312h12.625a3.156 3.156 0 100-6.312zM56.813 88.375a3.156 3.156 0 003.156 3.156H91.53a3.157 3.157 0 000-6.312H59.97a3.157 3.157 0 00-3.157 3.156zm-15.782 15.781h31.563a3.156 3.156 0 100-6.312H41.03a3.157 3.157 0 000 6.312zm50.5-6.312H85.22a3.157 3.157 0 000 6.312h6.312a3.156 3.156 0 100-6.312zm-50.5-18.938H59.97a3.157 3.157 0 000-6.312H41.03a3.157 3.157 0 000 6.312z"></path>
  </symbol>
  <symbol xmlns="http://www.w3.org/2000/svg" viewBox="0 0 182 182" id="img-card-logo">
    <path d="M179.844 170.037L126.841 9.634c-1.785-5.401-7.639-9.632-13.328-9.632L68.487 0C62.798 0 56.944 4.231 55.16 9.632L2.156 170.037c-.993 3.002-.608 6.044 1.055 8.344 1.661 2.3 4.428 3.619 7.59 3.619h34.585a27.392 27.392 0 0026.054-18.832L91 103.977l19.558 59.192A27.392 27.392 0 00136.613 182h34.586c3.162 0 5.929-1.319 7.591-3.619 1.662-2.301 2.047-5.342 1.054-8.344zm-115.456-9.199a19.978 19.978 0 01-19.002 13.733H10.802c-.75 0-1.322-.197-1.571-.542-.249-.345-.257-.95-.022-1.662L62.212 11.963c.784-2.373 3.775-4.534 6.275-4.534h44.271c.75 0 1.322.197 1.571.542.249.345.257.95.022 1.662L64.388 160.838zm108.381 13.191c-.249.344-.821.542-1.571.542h-34.586a19.972 19.972 0 01-18.999-13.732l-22.701-68.7 25.684-77.728 52.196 157.957c.234.711.226 1.317-.023 1.661z"></path>
    <path d="M55.656 70.145a3.715 3.715 0 00-4.692 2.361l-11.973 36.231a3.714 3.714 0 107.053 2.331l11.973-36.23a3.714 3.714 0 00-2.36-4.693zm4.54-13.738a3.715 3.715 0 00-4.693 2.361l-.552 1.67a3.715 3.715 0 007.053 2.332l.553-1.67a3.713 3.713 0 00-2.361-4.693z"></path>
  </symbol>
  <symbol xmlns="http://www.w3.org/2000/svg" viewBox="0 0 182 182" id="img-card-server">
    <path d="M172.9 54.6a9.1 9.1 0 009.1-9.1V9.1a9.1 9.1 0 00-9.1-9.1H9.1A9.1 9.1 0 000 9.1v36.4a9.1 9.1 0 009.1 9.1h9.1v9.1H9.1A9.1 9.1 0 000 72.8v36.4a9.1 9.1 0 009.1 9.1h9.1v9.1H9.1a9.1 9.1 0 00-9.1 9.1v36.4a9.1 9.1 0 009.1 9.1h163.8a9.1 9.1 0 009.1-9.1v-36.4a9.1 9.1 0 00-9.1-9.1h-9.1v-9.1h9.1a9.1 9.1 0 009.1-9.1V72.8a9.1 9.1 0 00-9.1-9.1h-9.1v-9.1h9.1zm0 78.867a3.033 3.033 0 013.033 3.033v36.4a3.033 3.033 0 01-3.033 3.033H9.1a3.033 3.033 0 01-3.033-3.033v-36.4a3.033 3.033 0 013.033-3.033h163.8zM24.267 127.4v-9.1h6.066v9.1h-6.066zm12.133 0v-9.1h109.2v9.1H36.4zm115.267 0v-9.1h6.066v9.1h-6.066zM172.9 69.767a3.033 3.033 0 013.033 3.033v36.4a3.033 3.033 0 01-3.033 3.033H9.1a3.033 3.033 0 01-3.033-3.033V72.8A3.033 3.033 0 019.1 69.767h163.8zM24.267 63.7v-9.1h6.066v9.1h-6.066zm12.133 0v-9.1h109.2v9.1H36.4zm115.267 0v-9.1h6.066v9.1h-6.066zM9.1 48.533A3.033 3.033 0 016.067 45.5V9.1A3.033 3.033 0 019.1 6.067h163.8a3.033 3.033 0 013.033 3.033v36.4a3.033 3.033 0 01-3.033 3.033H9.1z"></path>
    <path d="M97.067 24.267H35.842a9.1 9.1 0 100 6.067h61.225a3.033 3.033 0 000-6.067zM27.3 30.333a3.033 3.033 0 110-6.067 3.033 3.033 0 010 6.067zm112.233-18.2h-6.066V18.2h6.066v-6.067zm12.134 0H145.6V18.2h6.067v-6.067zm12.133 0h-6.067V18.2h6.067v-6.067zm-36.4 0h-6.067V18.2h6.067v-6.067zm-12.133 0H109.2V18.2h6.067v-6.067zm24.266 12.134h-6.066v6.066h6.066v-6.066zm12.134 0H145.6v6.066h6.067v-6.066zm12.133 0h-6.067v6.066h6.067v-6.066zm-36.4 0h-6.067v6.066h6.067v-6.066zm-12.133 0H109.2v6.066h6.067v-6.066zM139.533 36.4h-6.066v6.067h6.066V36.4zm12.134 0H145.6v6.067h6.067V36.4zm12.133 0h-6.067v6.067h6.067V36.4zm-36.4 0h-6.067v6.067h6.067V36.4zm-12.133 0H109.2v6.067h6.067V36.4zm-18.2 51.567H35.842a9.1 9.1 0 100 6.067h61.225a3.034 3.034 0 000-6.067zM27.3 94.033a3.033 3.033 0 110-6.066 3.033 3.033 0 010 6.066zm112.233-18.2h-6.066V81.9h6.066v-6.067zm12.134 0H145.6V81.9h6.067v-6.067zm12.133 0h-6.067V81.9h6.067v-6.067zm-36.4 0h-6.067V81.9h6.067v-6.067zm-12.133 0H109.2V81.9h6.067v-6.067zm24.266 12.134h-6.066v6.066h6.066v-6.066zm12.134 0H145.6v6.066h6.067v-6.066zm12.133 0h-6.067v6.066h6.067v-6.066zm-36.4 0h-6.067v6.066h6.067v-6.066zm-12.133 0H109.2v6.066h6.067v-6.066zm24.266 12.133h-6.066v6.067h6.066V100.1zm12.134 0H145.6v6.067h6.067V100.1zm12.133 0h-6.067v6.067h6.067V100.1zm-36.4 0h-6.067v6.067h6.067V100.1zm-12.133 0H109.2v6.067h6.067V100.1zm-18.2 51.567H35.842a9.099 9.099 0 00-11.613-5.546 9.1 9.1 0 00-5.546 11.612 9.099 9.099 0 0017.159 0h61.225a3.033 3.033 0 100-6.066zM27.3 157.733a3.033 3.033 0 110-6.066 3.033 3.033 0 010 6.066zm112.233-18.2h-6.066v6.067h6.066v-6.067zm12.134 0H145.6v6.067h6.067v-6.067zm12.133 0h-6.067v6.067h6.067v-6.067zm-36.4 0h-6.067v6.067h6.067v-6.067zm-12.133 0H109.2v6.067h6.067v-6.067zm24.266 12.134h-6.066v6.066h6.066v-6.066zm12.134 0H145.6v6.066h6.067v-6.066zm12.133 0h-6.067v6.066h6.067v-6.066zm-36.4 0h-6.067v6.066h6.067v-6.066zm-12.133 0H109.2v6.066h6.067v-6.066zm24.266 12.133h-6.066v6.067h6.066V163.8zm12.134 0H145.6v6.067h6.067V163.8zm12.133 0h-6.067v6.067h6.067V163.8zm-36.4 0h-6.067v6.067h6.067V163.8zm-12.133 0H109.2v6.067h6.067V163.8z"></path>
  </symbol>
  <symbol xmlns="http://www.w3.org/2000/svg" viewBox="0 0 202 202" id="img-card-verstka">
    <path d="M31.236 31.234H0V0h31.236v31.234zm-25.3-5.936H25.3V5.936H5.936v19.362zM202 31.234h-31.234V0H202v31.234zm-25.298-5.936h19.362V5.936h-19.362v19.362zM31.236 202H0v-31.234h31.236V202zm-25.3-5.936H25.3v-19.362H5.936v19.362zM202 202h-31.234v-31.234H202V202zm-25.298-5.936h19.362v-19.362h-19.362v19.362zM40.916 12.65h6.325v5.936h-6.325V12.65zm12.649 0h6.325v5.936h-6.325V12.65zm12.65 0h6.323v5.936h-6.323V12.65zm12.648 0h6.325v5.936h-6.325V12.65zm12.65 0h6.325v5.936h-6.325V12.65zm12.649 0h6.325v5.936h-6.325V12.65zm12.65 0h6.323v5.936h-6.323V12.65zm12.648 0h6.325v5.936h-6.325V12.65zm12.65 0h6.325v5.936h-6.325V12.65zm12.65 0h6.324v5.936h-6.324V12.65zM40.916 186.576h6.325v5.937h-6.325v-5.937zm12.649 0h6.325v5.937h-6.325v-5.937zm12.65 0h6.323v5.937h-6.323v-5.937zm12.648 0h6.325v5.937h-6.325v-5.937zm12.65 0h6.325v5.937h-6.325v-5.937zm12.649 0h6.325v5.937h-6.325v-5.937zm12.65 0h6.323v5.937h-6.323v-5.937zm12.648 0h6.325v5.937h-6.325v-5.937zm12.65 0h6.325v5.937h-6.325v-5.937zm12.65 0h6.324v5.937h-6.324v-5.937zM12.65 40.916h5.936v120.168H12.65V40.916zm170.764 0h5.936v120.168h-5.936V40.916z"></path>
    <path d="M12.455 12.65h6.325v5.936h-6.325V12.65zm170.765 0h6.325v5.936h-6.325V12.65zm0 170.764h6.325v5.936h-6.325v-5.936zm-170.765 0h6.325v5.936h-6.325v-5.936zm157.922-95.258H31.623V44.272H101v5.937H37.56v32.01h126.88V50.21h-53.954v-5.937h59.89v43.884zm-63.246 72.734H31.623v-34.592h5.936v28.656h63.635v-50.986H37.559v12.843h-5.936v-18.78h75.508v62.859zm63.246-37.947h-25.105v-5.937h19.169v-13.038H119.78v13.038h16.005v5.937h-21.941V98.032h56.533v24.911zm0 37.947h-56.533v-31.234h56.533v9.291h-5.936v-3.356H119.78v19.363h44.661v-6.519h5.936v12.455z"></path>
    <path d="M66.41 119.974h5.936v18.973h-5.937v-18.973z"></path>
    <path d="M59.89 126.494h18.973v5.934H59.89v-5.934zm-9.681-57.117h-5.937V56.922h12.456v5.936h-6.52v6.52zm101.388.195h6.325v5.934h-6.325v-5.934zm-12.65 0h6.325v5.934h-6.325v-5.934z"></path>
  </symbol>
</svg>